solid ascii
  facet normal 9.120962e-001 -4.099760e-001 4.747534e-004
    outer loop
      vertex   -2.765788e+001 -2.354344e+002 8.526704e+001
      vertex   -2.542204e+001 -2.304591e+002 8.621179e+001
      vertex   -2.765897e+001 -2.354339e+002 8.780000e+001
    endloop
  endfacet
  facet normal 9.120962e-001 -4.099760e-001 4.747536e-004
    outer loop
      vertex   -2.765897e+001 -2.354339e+002 8.780000e+001
      vertex   -2.542204e+001 -2.304591e+002 8.621179e+001
      vertex   -2.542273e+001 -2.304588e+002 8.780000e+001
    endloop
  endfacet
  facet normal -7.360281e-001 -6.769510e-001 -7.464941e-006
    outer loop
      vertex   -3.504233e+001 -2.303119e+002 8.780000e+001
      vertex   -3.504340e+001 -2.303107e+002 8.526015e+001
      vertex   -3.479325e+001 -2.305827e+002 8.662218e+001
    endloop
  endfacet
  facet normal -7.192853e-001 -6.947141e-001 -9.490836e-004
    outer loop
      vertex   -3.466352e+001 -2.307186e+002 8.780000e+001
      vertex   -3.479325e+001 -2.305827e+002 8.662218e+001
      vertex   -3.453603e+001 -2.308490e+002 8.662218e+001
    endloop
  endfacet
  facet normal -7.025345e-001 -7.116497e-001 2.639489e-005
    outer loop
      vertex   -3.427081e+001 -2.311108e+002 8.780000e+001
      vertex   -3.453603e+001 -2.308490e+002 8.662218e+001
      vertex   -3.427271e+001 -2.311090e+002 8.662218e+001
    endloop
  endfacet
  facet normal -6.858920e-001 -7.277033e-001 0.000000e+000
    outer loop
      vertex   -3.400349e+001 -2.313627e+002 8.662218e+001
      vertex   -3.427271e+001 -2.311090e+002 8.662218e+001
      vertex   -3.400349e+001 -2.313627e+002 8.544436e+001
    endloop
  endfacet
  facet normal -6.694138e-001 -7.428783e-001 4.116375e-003
    outer loop
      vertex   -3.372854e+001 -2.316105e+002 8.544436e+001
      vertex   -3.400349e+001 -2.313627e+002 8.544436e+001
      vertex   -3.389904e+001 -2.314581e+002 8.521016e+001
    endloop
  endfacet
  facet normal -6.652502e-001 -7.466193e-001 -1.348061e-003
    outer loop
      vertex   -3.369258e+001 -2.316421e+002 8.520447e+001
      vertex   -3.372854e+001 -2.316105e+002 8.544436e+001
      vertex   -3.389904e+001 -2.314581e+002 8.521016e+001
    endloop
  endfacet
  facet normal -6.559534e-001 -7.548005e-001 1.123671e-003
    outer loop
      vertex   -3.369258e+001 -2.316421e+002 8.520447e+001
      vertex   -3.358284e+001 -2.317374e+002 8.520179e+001
      vertex   -3.372854e+001 -2.316105e+002 8.544436e+001
    endloop
  endfacet
  facet normal -6.531684e-001 -7.572018e-001 4.053502e-003
    outer loop
      vertex   -3.372854e+001 -2.316105e+002 8.544436e+001
      vertex   -3.358284e+001 -2.317374e+002 8.520179e+001
      vertex   -3.344806e+001 -2.318524e+002 8.544436e+001
    endloop
  endfacet
  facet normal -6.531738e-001 -7.572080e-001 0.000000e+000
    outer loop
      vertex   -3.372854e+001 -2.316105e+002 8.662218e+001
      vertex   -3.344806e+001 -2.318524e+002 8.544436e+001
      vertex   -3.344806e+001 -2.318524e+002 8.662218e+001
    endloop
  endfacet
  facet normal -6.372072e-001 -7.706925e-001 -2.162108e-005
    outer loop
      vertex   -3.344616e+001 -2.318540e+002 8.780000e+001
      vertex   -3.344806e+001 -2.318524e+002 8.662218e+001
      vertex   -3.316221e+001 -2.320888e+002 8.662218e+001
    endloop
  endfacet
  facet normal -6.215673e-001 -7.833603e-001 -7.779945e-004
    outer loop
      vertex   -3.301545e+001 -2.322064e+002 8.780000e+001
      vertex   -3.316221e+001 -2.320888e+002 8.662218e+001
      vertex   -3.287119e+001 -2.323197e+002 8.662218e+001
    endloop
  endfacet
  facet normal -6.062975e-001 -7.952379e-001 1.873876e-005
    outer loop
      vertex   -3.257332e+001 -2.325467e+002 8.780000e+001
      vertex   -3.287119e+001 -2.323197e+002 8.662218e+001
      vertex   -3.257518e+001 -2.325453e+002 8.662218e+001
    endloop
  endfacet
  facet normal -5.914353e-001 -8.063524e-001 0.000000e+000
    outer loop
      vertex   -3.227436e+001 -2.327660e+002 8.662218e+001
      vertex   -3.257518e+001 -2.325453e+002 8.662218e+001
      vertex   -3.227436e+001 -2.327660e+002 8.544436e+001
    endloop
  endfacet
  facet normal -5.770134e-001 -8.167319e-001 2.148664e-003
    outer loop
      vertex   -3.196892e+001 -2.329818e+002 8.544436e+001
      vertex   -3.227436e+001 -2.327660e+002 8.544436e+001
      vertex   -3.220809e+001 -2.328135e+002 8.518541e+001
    endloop
  endfacet
  facet normal -5.693503e-001 -8.220523e-001 -8.386571e-003
    outer loop
      vertex   -3.169825e+001 -2.331666e+002 8.518597e+001
      vertex   -3.196892e+001 -2.329818e+002 8.544436e+001
      vertex   -3.220809e+001 -2.328135e+002 8.518541e+001
    endloop
  endfacet
  facet normal -5.630644e-001 -8.264120e-001 1.316424e-003
    outer loop
      vertex   -3.169825e+001 -2.331666e+002 8.518597e+001
      vertex   -3.165903e+001 -2.331929e+002 8.544436e+001
      vertex   -3.196892e+001 -2.329818e+002 8.544436e+001
    endloop
  endfacet
  facet normal -5.496104e-001 -8.354195e-001 -1.642900e-003
    outer loop
      vertex   -3.169825e+001 -2.331666e+002 8.518597e+001
      vertex   -3.134488e+001 -2.333996e+002 8.544436e+001
      vertex   -3.165903e+001 -2.331929e+002 8.544436e+001
    endloop
  endfacet
  facet normal -5.472387e-001 -8.369531e-001 -6.269349e-003
    outer loop
      vertex   -3.169825e+001 -2.331666e+002 8.518597e+001
      vertex   -3.119060e+001 -2.334986e+002 8.518936e+001
      vertex   -3.134488e+001 -2.333996e+002 8.544436e+001
    endloop
  endfacet
  facet normal -5.366730e-001 -8.437858e-001 2.774739e-003
    outer loop
      vertex   -3.134488e+001 -2.333996e+002 8.544436e+001
      vertex   -3.119060e+001 -2.334986e+002 8.518936e+001
      vertex   -3.102666e+001 -2.336020e+002 8.544436e+001
    endloop
  endfacet
  facet normal -5.366750e-001 -8.437890e-001 0.000000e+000
    outer loop
      vertex   -3.134488e+001 -2.333996e+002 8.662218e+001
      vertex   -3.102666e+001 -2.336020e+002 8.544436e+001
      vertex   -3.102666e+001 -2.336020e+002 8.662218e+001
    endloop
  endfacet
  facet normal -5.272863e-001 -8.496869e-001 1.155666e-003
    outer loop
      vertex   -3.118449e+001 -2.335025e+002 8.780000e+001
      vertex   -3.102666e+001 -2.336020e+002 8.662218e+001
      vertex   -3.070279e+001 -2.338014e+002 8.780000e+001
    endloop
  endfacet
  facet normal -5.366750e-001 -8.437889e-001 -6.009256e-004
    outer loop
      vertex   -3.118449e+001 -2.335025e+002 8.780000e+001
      vertex   -3.134488e+001 -2.333996e+002 8.662218e+001
      vertex   -3.102666e+001 -2.336020e+002 8.662218e+001
    endloop
  endfacet
  facet normal -5.462831e-001 -8.375997e-001 1.247981e-003
    outer loop
      vertex   -3.118449e+001 -2.335025e+002 8.780000e+001
      vertex   -3.165722e+001 -2.331941e+002 8.780000e+001
      vertex   -3.134488e+001 -2.333996e+002 8.662218e+001
    endloop
  endfacet
  facet normal -5.496112e-001 -8.354206e-001 -1.468328e-005
    outer loop
      vertex   -3.134488e+001 -2.333996e+002 8.662218e+001
      vertex   -3.165722e+001 -2.331941e+002 8.780000e+001
      vertex   -3.165903e+001 -2.331929e+002 8.662218e+001
    endloop
  endfacet
  facet normal -5.496112e-001 -8.354206e-001 -0.000000e+000
    outer loop
      vertex   -3.134488e+001 -2.333996e+002 8.544436e+001
      vertex   -3.165903e+001 -2.331929e+002 8.662218e+001
      vertex   -3.165903e+001 -2.331929e+002 8.544436e+001
    endloop
  endfacet
  facet normal -5.496112e-001 -8.354206e-001 0.000000e+000
    outer loop
      vertex   -3.134488e+001 -2.333996e+002 8.544436e+001
      vertex   -3.134488e+001 -2.333996e+002 8.662218e+001
      vertex   -3.165903e+001 -2.331929e+002 8.662218e+001
    endloop
  endfacet
  facet normal -5.366750e-001 -8.437890e-001 0.000000e+000
    outer loop
      vertex   -3.134488e+001 -2.333996e+002 8.544436e+001
      vertex   -3.102666e+001 -2.336020e+002 8.544436e+001
      vertex   -3.134488e+001 -2.333996e+002 8.662218e+001
    endloop
  endfacet
  facet normal -7.303097e-001 -6.831154e-001 -1.059968e-003
    outer loop
      vertex   -3.476535e+001 -2.306122e+002 8.524472e+001
      vertex   -3.479325e+001 -2.305827e+002 8.544436e+001
      vertex   -3.489972e+001 -2.304686e+002 8.525188e+001
    endloop
  endfacet
  facet normal -7.216639e-001 -6.922420e-001 1.497478e-003
    outer loop
      vertex   -3.476535e+001 -2.306122e+002 8.524472e+001
      vertex   -3.463944e+001 -2.307435e+002 8.523850e+001
      vertex   -3.479325e+001 -2.305827e+002 8.544436e+001
    endloop
  endfacet
  facet normal -7.192759e-001 -6.947050e-001 5.205446e-003
    outer loop
      vertex   -3.479325e+001 -2.305827e+002 8.544436e+001
      vertex   -3.463944e+001 -2.307435e+002 8.523850e+001
      vertex   -3.453603e+001 -2.308490e+002 8.544436e+001
    endloop
  endfacet
  facet normal -7.192856e-001 -6.947144e-001 0.000000e+000
    outer loop
      vertex   -3.479325e+001 -2.305827e+002 8.662218e+001
      vertex   -3.453603e+001 -2.308490e+002 8.544436e+001
      vertex   -3.453603e+001 -2.308490e+002 8.662218e+001
    endloop
  endfacet
  facet normal -7.192856e-001 -6.947144e-001 -0.000000e+000
    outer loop
      vertex   -3.479325e+001 -2.305827e+002 8.662218e+001
      vertex   -3.479325e+001 -2.305827e+002 8.544436e+001
      vertex   -3.453603e+001 -2.308490e+002 8.544436e+001
    endloop
  endfacet
  facet normal -7.312024e-001 -6.821606e-001 0.000000e+000
    outer loop
      vertex   -3.479325e+001 -2.305827e+002 8.662218e+001
      vertex   -3.489972e+001 -2.304686e+002 8.525188e+001
      vertex   -3.479325e+001 -2.305827e+002 8.544436e+001
    endloop
  endfacet
  facet normal -7.395277e-001 -6.731247e-001 1.399380e-003
    outer loop
      vertex   -3.479325e+001 -2.305827e+002 8.662218e+001
      vertex   -3.504340e+001 -2.303107e+002 8.526015e+001
      vertex   -3.489972e+001 -2.304686e+002 8.525188e+001
    endloop
  endfacet
  facet normal -7.137558e-001 -7.003945e-001 -4.840932e-004
    outer loop
      vertex   -3.463944e+001 -2.307435e+002 8.523850e+001
      vertex   -3.452098e+001 -2.308642e+002 8.523304e+001
      vertex   -3.453603e+001 -2.308490e+002 8.544436e+001
    endloop
  endfacet
  facet normal -7.063208e-001 -7.078916e-001 5.839460e-004
    outer loop
      vertex   -3.453603e+001 -2.308490e+002 8.544436e+001
      vertex   -3.452098e+001 -2.308642e+002 8.523304e+001
      vertex   -3.440887e+001 -2.309761e+002 8.522822e+001
    endloop
  endfacet
  facet normal -6.993555e-001 -7.147732e-001 1.097103e-003
    outer loop
      vertex   -3.427271e+001 -2.311090e+002 8.544436e+001
      vertex   -3.440887e+001 -2.309761e+002 8.522822e+001
      vertex   -3.430192e+001 -2.310807e+002 8.522392e+001
    endloop
  endfacet
  facet normal -6.897184e-001 -7.240764e-001 -1.371661e-003
    outer loop
      vertex   -3.409826e+001 -2.312747e+002 8.521650e+001
      vertex   -3.427271e+001 -2.311090e+002 8.544436e+001
      vertex   -3.430192e+001 -2.310807e+002 8.522392e+001
    endloop
  endfacet
  facet normal -6.858860e-001 -7.276969e-001 4.195829e-003
    outer loop
      vertex   -3.409826e+001 -2.312747e+002 8.521650e+001
      vertex   -3.400349e+001 -2.313627e+002 8.544436e+001
      vertex   -3.427271e+001 -2.311090e+002 8.544436e+001
    endloop
  endfacet
  facet normal -6.773906e-001 -7.356196e-001 -2.398212e-003
    outer loop
      vertex   -3.409826e+001 -2.312747e+002 8.521650e+001
      vertex   -3.389904e+001 -2.314581e+002 8.521016e+001
      vertex   -3.400349e+001 -2.313627e+002 8.544436e+001
    endloop
  endfacet
  facet normal -7.025257e-001 -7.116407e-001 5.020364e-003
    outer loop
      vertex   -3.453603e+001 -2.308490e+002 8.544436e+001
      vertex   -3.440887e+001 -2.309761e+002 8.522822e+001
      vertex   -3.427271e+001 -2.311090e+002 8.544436e+001
    endloop
  endfacet
  facet normal -7.025345e-001 -7.116497e-001 0.000000e+000
    outer loop
      vertex   -3.453603e+001 -2.308490e+002 8.662218e+001
      vertex   -3.427271e+001 -2.311090e+002 8.544436e+001
      vertex   -3.427271e+001 -2.311090e+002 8.662218e+001
    endloop
  endfacet
  facet normal -7.025345e-001 -7.116497e-001 -0.000000e+000
    outer loop
      vertex   -3.453603e+001 -2.308490e+002 8.662218e+001
      vertex   -3.453603e+001 -2.308490e+002 8.544436e+001
      vertex   -3.427271e+001 -2.311090e+002 8.544436e+001
    endloop
  endfacet
  facet normal -6.494813e-001 -7.603774e-001 4.995423e-004
    outer loop
      vertex   -3.358284e+001 -2.317374e+002 8.520179e+001
      vertex   -3.346668e+001 -2.318367e+002 8.519921e+001
      vertex   -3.344806e+001 -2.318524e+002 8.544436e+001
    endloop
  endfacet
  facet normal -6.392989e-001 -7.689579e-001 -8.253006e-004
    outer loop
      vertex   -3.344806e+001 -2.318524e+002 8.544436e+001
      vertex   -3.346668e+001 -2.318367e+002 8.519921e+001
      vertex   -3.321922e+001 -2.320424e+002 8.519452e+001
    endloop
  endfacet
  facet normal -6.256961e-001 -7.800645e-001 -1.956150e-003
    outer loop
      vertex   -3.316221e+001 -2.320888e+002 8.544436e+001
      vertex   -3.321922e+001 -2.320424e+002 8.519452e+001
      vertex   -3.296867e+001 -2.322434e+002 8.519083e+001
    endloop
  endfacet
  facet normal -6.124263e-001 -7.905238e-001 -2.465116e-003
    outer loop
      vertex   -3.287119e+001 -2.323197e+002 8.544436e+001
      vertex   -3.296867e+001 -2.322434e+002 8.519083e+001
      vertex   -3.271632e+001 -2.324388e+002 8.518812e+001
    endloop
  endfacet
  facet normal -5.933705e-001 -8.048926e-001 -7.701562e-003
    outer loop
      vertex   -3.257518e+001 -2.325453e+002 8.544436e+001
      vertex   -3.271632e+001 -2.324388e+002 8.518812e+001
      vertex   -3.220809e+001 -2.328135e+002 8.518541e+001
    endloop
  endfacet
  facet normal -5.914318e-001 -8.063476e-001 -3.446627e-003
    outer loop
      vertex   -3.227436e+001 -2.327660e+002 8.544436e+001
      vertex   -3.257518e+001 -2.325453e+002 8.544436e+001
      vertex   -3.220809e+001 -2.328135e+002 8.518541e+001
    endloop
  endfacet
  facet normal -5.914353e-001 -8.063524e-001 -0.000000e+000
    outer loop
      vertex   -3.227436e+001 -2.327660e+002 8.544436e+001
      vertex   -3.257518e+001 -2.325453e+002 8.662218e+001
      vertex   -3.257518e+001 -2.325453e+002 8.544436e+001
    endloop
  endfacet
  facet normal -6.062975e-001 -7.952379e-001 0.000000e+000
    outer loop
      vertex   -3.257518e+001 -2.325453e+002 8.544436e+001
      vertex   -3.257518e+001 -2.325453e+002 8.662218e+001
      vertex   -3.287119e+001 -2.323197e+002 8.662218e+001
    endloop
  endfacet
  facet normal -6.215675e-001 -7.833606e-001 0.000000e+000
    outer loop
      vertex   -3.287119e+001 -2.323197e+002 8.544436e+001
      vertex   -3.287119e+001 -2.323197e+002 8.662218e+001
      vertex   -3.316221e+001 -2.320888e+002 8.662218e+001
    endloop
  endfacet
  facet normal -6.372072e-001 -7.706925e-001 0.000000e+000
    outer loop
      vertex   -3.316221e+001 -2.320888e+002 8.544436e+001
      vertex   -3.316221e+001 -2.320888e+002 8.662218e+001
      vertex   -3.344806e+001 -2.318524e+002 8.662218e+001
    endloop
  endfacet
  facet normal -6.372072e-001 -7.706925e-001 0.000000e+000
    outer loop
      vertex   -3.344806e+001 -2.318524e+002 8.544436e+001
      vertex   -3.316221e+001 -2.320888e+002 8.544436e+001
      vertex   -3.344806e+001 -2.318524e+002 8.662218e+001
    endloop
  endfacet
  facet normal -6.372054e-001 -7.706903e-001 2.409524e-003
    outer loop
      vertex   -3.344806e+001 -2.318524e+002 8.544436e+001
      vertex   -3.321922e+001 -2.320424e+002 8.519452e+001
      vertex   -3.316221e+001 -2.320888e+002 8.544436e+001
    endloop
  endfacet
  facet normal -6.215643e-001 -7.833566e-001 3.205597e-003
    outer loop
      vertex   -3.316221e+001 -2.320888e+002 8.544436e+001
      vertex   -3.296867e+001 -2.322434e+002 8.519083e+001
      vertex   -3.287119e+001 -2.323197e+002 8.544436e+001
    endloop
  endfacet
  facet normal -6.215675e-001 -7.833606e-001 -0.000000e+000
    outer loop
      vertex   -3.316221e+001 -2.320888e+002 8.662218e+001
      vertex   -3.316221e+001 -2.320888e+002 8.544436e+001
      vertex   -3.287119e+001 -2.323197e+002 8.544436e+001
    endloop
  endfacet
  facet normal -6.062939e-001 -7.952332e-001 3.431630e-003
    outer loop
      vertex   -3.287119e+001 -2.323197e+002 8.544436e+001
      vertex   -3.271632e+001 -2.324388e+002 8.518812e+001
      vertex   -3.257518e+001 -2.325453e+002 8.544436e+001
    endloop
  endfacet
  facet normal -6.062975e-001 -7.952379e-001 -0.000000e+000
    outer loop
      vertex   -3.287119e+001 -2.323197e+002 8.662218e+001
      vertex   -3.287119e+001 -2.323197e+002 8.544436e+001
      vertex   -3.257518e+001 -2.325453e+002 8.544436e+001
    endloop
  endfacet
  facet normal -5.270899e-001 -8.497896e-001 -5.822115e-003
    outer loop
      vertex   -3.119060e+001 -2.334986e+002 8.518936e+001
      vertex   -3.068895e+001 -2.338098e+002 8.519515e+001
      vertex   -3.102666e+001 -2.336020e+002 8.544436e+001
    endloop
  endfacet
  facet normal -5.239855e-001 -8.517272e-001 0.000000e+000
    outer loop
      vertex   -3.102666e+001 -2.336020e+002 8.544436e+001
      vertex   -3.068895e+001 -2.338098e+002 8.519515e+001
      vertex   -3.102666e+001 -2.336020e+002 8.662218e+001
    endloop
  endfacet
  facet normal -5.183519e-001 -8.551654e-001 1.833725e-003
    outer loop
      vertex   -3.102666e+001 -2.336020e+002 8.662218e+001
      vertex   -3.068895e+001 -2.338098e+002 8.519515e+001
      vertex   -3.037870e+001 -2.339947e+002 8.662218e+001
    endloop
  endfacet
  facet normal -5.095193e-001 -8.604585e-001 1.071067e-003
    outer loop
      vertex   -3.070279e+001 -2.338014e+002 8.780000e+001
      vertex   -3.037870e+001 -2.339947e+002 8.662218e+001
      vertex   -3.021276e+001 -2.340915e+002 8.780000e+001
    endloop
  endfacet
  facet normal -5.183515e-001 -8.551647e-001 -2.228363e-003
    outer loop
      vertex   -3.070279e+001 -2.338014e+002 8.780000e+001
      vertex   -3.102666e+001 -2.336020e+002 8.662218e+001
      vertex   -3.037870e+001 -2.339947e+002 8.662218e+001
    endloop
  endfacet
  facet normal -5.121440e-001 -8.588996e-001 0.000000e+000
    outer loop
      vertex   -3.037870e+001 -2.339947e+002 8.662218e+001
      vertex   -3.068895e+001 -2.338098e+002 8.519515e+001
      vertex   -3.037870e+001 -2.339947e+002 8.544436e+001
    endloop
  endfacet
  facet normal -5.046584e-001 -8.633185e-001 -1.072730e-003
    outer loop
      vertex   -3.019707e+001 -2.341006e+002 8.520288e+001
      vertex   -3.037870e+001 -2.339947e+002 8.544436e+001
      vertex   -3.044155e+001 -2.339577e+002 8.519880e+001
    endloop
  endfacet
  facet normal -5.035946e-001 -8.639401e-001 -0.000000e+000
    outer loop
      vertex   -3.019707e+001 -2.341006e+002 8.520288e+001
      vertex   -3.037870e+001 -2.339947e+002 8.662218e+001
      vertex   -3.037870e+001 -2.339947e+002 8.544436e+001
    endloop
  endfacet
  facet normal -4.966011e-001 -8.679781e-001 1.196196e-003
    outer loop
      vertex   -3.019707e+001 -2.341006e+002 8.520288e+001
      vertex   -2.995597e+001 -2.342386e+002 8.520734e+001
      vertex   -3.037870e+001 -2.339947e+002 8.662218e+001
    endloop
  endfacet
  facet normal -4.957658e-001 -8.684549e-001 1.527914e-003
    outer loop
      vertex   -3.037870e+001 -2.339947e+002 8.662218e+001
      vertex   -2.995597e+001 -2.342386e+002 8.520734e+001
      vertex   -2.971577e+001 -2.343732e+002 8.662218e+001
    endloop
  endfacet
  facet normal -4.930231e-001 -8.700162e-001 6.774441e-006
    outer loop
      vertex   -3.021276e+001 -2.340915e+002 8.780000e+001
      vertex   -2.971577e+001 -2.343732e+002 8.662218e+001
      vertex   -2.971499e+001 -2.343736e+002 8.780000e+001
    endloop
  endfacet
  facet normal -4.957658e-001 -8.684549e-001 -1.523888e-003
    outer loop
      vertex   -3.021276e+001 -2.340915e+002 8.780000e+001
      vertex   -3.037870e+001 -2.339947e+002 8.662218e+001
      vertex   -2.971577e+001 -2.343732e+002 8.662218e+001
    endloop
  endfacet
  facet normal -5.132680e-001 -8.582263e-001 1.899102e-003
    outer loop
      vertex   -3.068895e+001 -2.338098e+002 8.519515e+001
      vertex   -3.044155e+001 -2.339577e+002 8.519880e+001
      vertex   -3.037870e+001 -2.339947e+002 8.544436e+001
    endloop
  endfacet
  facet normal -4.889333e-001 -8.723212e-001 0.000000e+000
    outer loop
      vertex   -2.971577e+001 -2.343732e+002 8.662218e+001
      vertex   -2.995597e+001 -2.342386e+002 8.520734e+001
      vertex   -2.971577e+001 -2.343732e+002 8.544436e+001
    endloop
  endfacet
  facet normal -4.818433e-001 -8.762574e-001 -5.702047e-005
    outer loop
      vertex   -2.948578e+001 -2.344996e+002 8.521719e+001
      vertex   -2.971577e+001 -2.343732e+002 8.544436e+001
      vertex   -2.971872e+001 -2.343716e+002 8.521213e+001
    endloop
  endfacet
  facet normal -4.818001e-001 -8.762812e-001 -0.000000e+000
    outer loop
      vertex   -2.948578e+001 -2.344996e+002 8.521719e+001
      vertex   -2.971577e+001 -2.343732e+002 8.662218e+001
      vertex   -2.971577e+001 -2.343732e+002 8.544436e+001
    endloop
  endfacet
  facet normal -4.754713e-001 -8.797302e-001 1.346398e-003
    outer loop
      vertex   -2.948578e+001 -2.344996e+002 8.521719e+001
      vertex   -2.904015e+001 -2.347383e+002 8.662218e+001
      vertex   -2.971577e+001 -2.343732e+002 8.662218e+001
    endloop
  endfacet
  facet normal -4.751920e-001 -8.798813e-001 1.232155e-003
    outer loop
      vertex   -2.948578e+001 -2.344996e+002 8.521719e+001
      vertex   -2.925761e+001 -2.346229e+002 8.522247e+001
      vertex   -2.904015e+001 -2.347383e+002 8.662218e+001
    endloop
  endfacet
  facet normal -4.690175e-001 -8.831889e-001 0.000000e+000
    outer loop
      vertex   -2.904015e+001 -2.347383e+002 8.662218e+001
      vertex   -2.925761e+001 -2.346229e+002 8.522247e+001
      vertex   -2.904015e+001 -2.347383e+002 8.544436e+001
    endloop
  endfacet
  facet normal -4.631541e-001 -8.862778e-001 9.327058e-005
    outer loop
      vertex   -2.881739e+001 -2.348548e+002 8.523349e+001
      vertex   -2.904015e+001 -2.347383e+002 8.544436e+001
      vertex   -2.903466e+001 -2.347412e+002 8.522792e+001
    endloop
  endfacet
  facet normal -4.632234e-001 -8.862415e-001 -0.000000e+000
    outer loop
      vertex   -2.881739e+001 -2.348548e+002 8.523349e+001
      vertex   -2.904015e+001 -2.347383e+002 8.662218e+001
      vertex   -2.904015e+001 -2.347383e+002 8.544436e+001
    endloop
  endfacet
  facet normal -4.578028e-001 -8.890531e-001 1.105279e-003
    outer loop
      vertex   -2.881739e+001 -2.348548e+002 8.523349e+001
      vertex   -2.860624e+001 -2.349635e+002 8.523914e+001
      vertex   -2.904015e+001 -2.347383e+002 8.662218e+001
    endloop
  endfacet
  facet normal -4.575285e-001 -8.891941e-001 1.214300e-003
    outer loop
      vertex   -2.904015e+001 -2.347383e+002 8.662218e+001
      vertex   -2.860624e+001 -2.349635e+002 8.523914e+001
      vertex   -2.835332e+001 -2.350917e+002 8.662218e+001
    endloop
  endfacet
  facet normal -4.513926e-001 -8.923251e-001 7.213761e-004
    outer loop
      vertex   -2.869873e+001 -2.349161e+002 8.780000e+001
      vertex   -2.835332e+001 -2.350917e+002 8.662218e+001
      vertex   -2.818148e+001 -2.351777e+002 8.780000e+001
    endloop
  endfacet
  facet normal -4.575283e-001 -8.891937e-001 -1.545058e-003
    outer loop
      vertex   -2.869873e+001 -2.349161e+002 8.780000e+001
      vertex   -2.904015e+001 -2.347383e+002 8.662218e+001
      vertex   -2.835332e+001 -2.350917e+002 8.662218e+001
    endloop
  endfacet
  facet normal -4.639450e-001 -8.858636e-001 8.174701e-004
    outer loop
      vertex   -2.869873e+001 -2.349161e+002 8.780000e+001
      vertex   -2.921011e+001 -2.346482e+002 8.780000e+001
      vertex   -2.904015e+001 -2.347383e+002 8.662218e+001
    endloop
  endfacet
  facet normal -4.754713e-001 -8.797302e-001 -1.314923e-003
    outer loop
      vertex   -2.904015e+001 -2.347383e+002 8.662218e+001
      vertex   -2.921011e+001 -2.346482e+002 8.780000e+001
      vertex   -2.971577e+001 -2.343732e+002 8.662218e+001
    endloop
  endfacet
  facet normal -4.778255e-001 -8.784548e-001 -6.384518e-006
    outer loop
      vertex   -2.971577e+001 -2.343732e+002 8.662218e+001
      vertex   -2.921011e+001 -2.346482e+002 8.780000e+001
      vertex   -2.971499e+001 -2.343736e+002 8.780000e+001
    endloop
  endfacet
  facet normal -4.889796e-001 -8.722952e-001 6.172913e-005
    outer loop
      vertex   -2.995597e+001 -2.342386e+002 8.520734e+001
      vertex   -2.971872e+001 -2.343716e+002 8.521213e+001
      vertex   -2.971577e+001 -2.343732e+002 8.544436e+001
    endloop
  endfacet
  facet normal -4.689424e-001 -8.832288e-001 -9.433304e-005
    outer loop
      vertex   -2.925761e+001 -2.346229e+002 8.522247e+001
      vertex   -2.903466e+001 -2.347412e+002 8.522792e+001
      vertex   -2.904015e+001 -2.347383e+002 8.544436e+001
    endloop
  endfacet
  facet normal -4.522547e-001 -8.918888e-001 0.000000e+000
    outer loop
      vertex   -2.835332e+001 -2.350917e+002 8.662218e+001
      vertex   -2.860624e+001 -2.349635e+002 8.523914e+001
      vertex   -2.835332e+001 -2.350917e+002 8.544436e+001
    endloop
  endfacet
  facet normal -4.457080e-001 -8.951784e-001 -1.581349e-004
    outer loop
      vertex   -2.818148e+001 -2.351777e+002 8.780000e+001
      vertex   -2.835332e+001 -2.350917e+002 8.544436e+001
      vertex   -2.801400e+001 -2.352607e+002 8.525612e+001
    endloop
  endfacet
  facet normal -4.401746e-001 -8.979121e-001 2.952916e-004
    outer loop
      vertex   -2.783178e+001 -2.353500e+002 8.526165e+001
      vertex   -2.818148e+001 -2.351777e+002 8.780000e+001
      vertex   -2.801400e+001 -2.352607e+002 8.525612e+001
    endloop
  endfacet
  facet normal -4.401734e-001 -8.979127e-001 2.954962e-004
    outer loop
      vertex   -2.783178e+001 -2.353500e+002 8.526165e+001
      vertex   -2.765897e+001 -2.354339e+002 8.780000e+001
      vertex   -2.818148e+001 -2.351777e+002 8.780000e+001
    endloop
  endfacet
  facet normal -4.366545e-001 -8.996293e-001 -8.026914e-007
    outer loop
      vertex   -2.783178e+001 -2.353500e+002 8.526165e+001
      vertex   -2.765788e+001 -2.354344e+002 8.526704e+001
      vertex   -2.765897e+001 -2.354339e+002 8.780000e+001
    endloop
  endfacet
  facet normal -4.528307e-001 -8.915961e-001 8.927201e-004
    outer loop
      vertex   -2.860624e+001 -2.349635e+002 8.523914e+001
      vertex   -2.840167e+001 -2.350674e+002 8.524483e+001
      vertex   -2.835332e+001 -2.350917e+002 8.544436e+001
    endloop
  endfacet
  facet normal -4.482189e-001 -8.939237e-001 -5.088251e-004
    outer loop
      vertex   -2.835332e+001 -2.350917e+002 8.544436e+001
      vertex   -2.840167e+001 -2.350674e+002 8.524483e+001
      vertex   -2.820411e+001 -2.351665e+002 8.525050e+001
    endloop
  endfacet
  facet normal -4.441008e-001 -8.959702e-001 3.449454e-003
    outer loop
      vertex   -2.801400e+001 -2.352607e+002 8.525612e+001
      vertex   -2.835332e+001 -2.350917e+002 8.544436e+001
      vertex   -2.820411e+001 -2.351665e+002 8.525050e+001
    endloop
  endfacet
  facet normal -4.474426e-001 -8.943127e-001 0.000000e+000
    outer loop
      vertex   -2.835332e+001 -2.350917e+002 8.544436e+001
      vertex   -2.818148e+001 -2.351777e+002 8.780000e+001
      vertex   -2.835332e+001 -2.350917e+002 8.662218e+001
    endloop
  endfacet
  facet normal -5.630649e-001 -8.264127e-001 1.532950e-005
    outer loop
      vertex   -3.165903e+001 -2.331929e+002 8.662218e+001
      vertex   -3.165722e+001 -2.331941e+002 8.780000e+001
      vertex   -3.196892e+001 -2.329818e+002 8.662218e+001
    endloop
  endfacet
  facet normal -5.630649e-001 -8.264127e-001 -0.000000e+000
    outer loop
      vertex   -3.165903e+001 -2.331929e+002 8.544436e+001
      vertex   -3.196892e+001 -2.329818e+002 8.662218e+001
      vertex   -3.196892e+001 -2.329818e+002 8.544436e+001
    endloop
  endfacet
  facet normal -5.630649e-001 -8.264127e-001 0.000000e+000
    outer loop
      vertex   -3.165903e+001 -2.331929e+002 8.544436e+001
      vertex   -3.165903e+001 -2.331929e+002 8.662218e+001
      vertex   -3.196892e+001 -2.329818e+002 8.662218e+001
    endloop
  endfacet
  facet normal -5.877273e-001 -8.090579e-001 1.426779e-003
    outer loop
      vertex   -3.257332e+001 -2.325467e+002 8.780000e+001
      vertex   -3.227436e+001 -2.327660e+002 8.662218e+001
      vertex   -3.212036e+001 -2.328758e+002 8.780000e+001
    endloop
  endfacet
  facet normal -5.914353e-001 -8.063524e-001 -1.800199e-005
    outer loop
      vertex   -3.257332e+001 -2.325467e+002 8.780000e+001
      vertex   -3.257518e+001 -2.325453e+002 8.662218e+001
      vertex   -3.227436e+001 -2.327660e+002 8.662218e+001
    endloop
  endfacet
  facet normal -6.100101e-001 -7.923922e-001 1.506310e-003
    outer loop
      vertex   -3.257332e+001 -2.325467e+002 8.780000e+001
      vertex   -3.301545e+001 -2.322064e+002 8.780000e+001
      vertex   -3.287119e+001 -2.323197e+002 8.662218e+001
    endloop
  endfacet
  facet normal -6.331892e-001 -7.739954e-001 1.605303e-003
    outer loop
      vertex   -3.301545e+001 -2.322064e+002 8.780000e+001
      vertex   -3.344616e+001 -2.318540e+002 8.780000e+001
      vertex   -3.316221e+001 -2.320888e+002 8.662218e+001
    endloop
  endfacet
  facet normal -6.531738e-001 -7.572080e-001 2.244579e-005
    outer loop
      vertex   -3.344806e+001 -2.318524e+002 8.662218e+001
      vertex   -3.344616e+001 -2.318540e+002 8.780000e+001
      vertex   -3.372854e+001 -2.316105e+002 8.662218e+001
    endloop
  endfacet
  facet normal -6.571279e-001 -7.537772e-001 1.679878e-003
    outer loop
      vertex   -3.372854e+001 -2.316105e+002 8.662218e+001
      vertex   -3.344616e+001 -2.318540e+002 8.780000e+001
      vertex   -3.386482e+001 -2.314890e+002 8.780000e+001
    endloop
  endfacet
  facet normal -6.816657e-001 -7.316616e-001 1.780361e-003
    outer loop
      vertex   -3.400349e+001 -2.313627e+002 8.662218e+001
      vertex   -3.386482e+001 -2.314890e+002 8.780000e+001
      vertex   -3.427081e+001 -2.311108e+002 8.780000e+001
    endloop
  endfacet
  facet normal -6.858920e-001 -7.277033e-001 -2.549186e-005
    outer loop
      vertex   -3.427271e+001 -2.311090e+002 8.662218e+001
      vertex   -3.400349e+001 -2.313627e+002 8.662218e+001
      vertex   -3.427081e+001 -2.311108e+002 8.780000e+001
    endloop
  endfacet
  facet normal -6.694192e-001 -7.428843e-001 -8.652088e-004
    outer loop
      vertex   -3.372854e+001 -2.316105e+002 8.662218e+001
      vertex   -3.386482e+001 -2.314890e+002 8.780000e+001
      vertex   -3.400349e+001 -2.313627e+002 8.662218e+001
    endloop
  endfacet
  facet normal -6.694195e-001 -7.428846e-001 -0.000000e+000
    outer loop
      vertex   -3.372854e+001 -2.316105e+002 8.544436e+001
      vertex   -3.400349e+001 -2.313627e+002 8.662218e+001
      vertex   -3.400349e+001 -2.313627e+002 8.544436e+001
    endloop
  endfacet
  facet normal -6.694195e-001 -7.428846e-001 0.000000e+000
    outer loop
      vertex   -3.372854e+001 -2.316105e+002 8.544436e+001
      vertex   -3.372854e+001 -2.316105e+002 8.662218e+001
      vertex   -3.400349e+001 -2.313627e+002 8.662218e+001
    endloop
  endfacet
  facet normal -6.531738e-001 -7.572080e-001 0.000000e+000
    outer loop
      vertex   -3.372854e+001 -2.316105e+002 8.544436e+001
      vertex   -3.344806e+001 -2.318524e+002 8.544436e+001
      vertex   -3.372854e+001 -2.316105e+002 8.662218e+001
    endloop
  endfacet
  facet normal -7.066184e-001 -7.075925e-001 1.847727e-003
    outer loop
      vertex   -3.427081e+001 -2.311108e+002 8.780000e+001
      vertex   -3.466352e+001 -2.307186e+002 8.780000e+001
      vertex   -3.453603e+001 -2.308490e+002 8.662218e+001
    endloop
  endfacet
  facet normal -7.317767e-001 -6.815417e-001 1.947067e-003
    outer loop
      vertex   -3.466352e+001 -2.307186e+002 8.780000e+001
      vertex   -3.504233e+001 -2.303119e+002 8.780000e+001
      vertex   -3.479325e+001 -2.305827e+002 8.662218e+001
    endloop
  endfacet
  facet normal -5.770147e-001 -8.167338e-001 -0.000000e+000
    outer loop
      vertex   -3.227436e+001 -2.327660e+002 8.662218e+001
      vertex   -3.227436e+001 -2.327660e+002 8.544436e+001
      vertex   -3.196892e+001 -2.329818e+002 8.544436e+001
    endloop
  endfacet
  facet normal -5.770147e-001 -8.167338e-001 0.000000e+000
    outer loop
      vertex   -3.196892e+001 -2.329818e+002 8.662218e+001
      vertex   -3.227436e+001 -2.327660e+002 8.662218e+001
      vertex   -3.196892e+001 -2.329818e+002 8.544436e+001
    endloop
  endfacet
  facet normal -5.770145e-001 -8.167336e-001 -6.894139e-004
    outer loop
      vertex   -3.196892e+001 -2.329818e+002 8.662218e+001
      vertex   -3.212036e+001 -2.328758e+002 8.780000e+001
      vertex   -3.227436e+001 -2.327660e+002 8.662218e+001
    endloop
  endfacet
  facet normal -5.664543e-001 -8.240921e-001 1.330691e-003
    outer loop
      vertex   -3.196892e+001 -2.329818e+002 8.662218e+001
      vertex   -3.165722e+001 -2.331941e+002 8.780000e+001
      vertex   -3.212036e+001 -2.328758e+002 8.780000e+001
    endloop
  endfacet
  facet normal -6.858920e-001 -7.277033e-001 -0.000000e+000
    outer loop
      vertex   -3.427271e+001 -2.311090e+002 8.662218e+001
      vertex   -3.427271e+001 -2.311090e+002 8.544436e+001
      vertex   -3.400349e+001 -2.313627e+002 8.544436e+001
    endloop
  endfacet
  facet normal -6.778264e-001 7.352217e-001 6.338585e-004
    outer loop
      vertex   -3.504340e+001 -2.303107e+002 8.526015e+001
      vertex   -3.504233e+001 -2.303119e+002 8.780000e+001
      vertex   -3.104264e+001 -2.266231e+002 8.619741e+001
    endloop
  endfacet
  facet normal -6.778264e-001 7.352217e-001 6.338585e-004
    outer loop
      vertex   -3.104264e+001 -2.266231e+002 8.619741e+001
      vertex   -3.504233e+001 -2.303119e+002 8.780000e+001
      vertex   -3.104187e+001 -2.266237e+002 8.780000e+001
    endloop
  endfacet
  facet normal 4.057570e-001 9.139810e-001 4.735111e-006
    outer loop
      vertex   -2.542273e+001 -2.304588e+002 8.780000e+001
      vertex   -2.542204e+001 -2.304591e+002 8.621179e+001
      vertex   -2.573107e+001 -2.303219e+002 8.696789e+001
    endloop
  endfacet
  facet normal 4.172328e-001 9.087995e-001 -5.011828e-004
    outer loop
      vertex   -2.565541e+001 -2.303562e+002 8.780000e+001
      vertex   -2.573107e+001 -2.303219e+002 8.696789e+001
      vertex   -2.588255e+001 -2.302519e+002 8.780000e+001
    endloop
  endfacet
  facet normal 4.035098e-001 9.149748e-001 1.000921e-003
    outer loop
      vertex   -2.565541e+001 -2.303562e+002 8.780000e+001
      vertex   -2.542273e+001 -2.304588e+002 8.780000e+001
      vertex   -2.573107e+001 -2.303219e+002 8.696789e+001
    endloop
  endfacet
  facet normal 4.015124e-001 9.158512e-001 -2.069405e-003
    outer loop
      vertex   -2.542204e+001 -2.304591e+002 8.621179e+001
      vertex   -2.558663e+001 -2.303870e+002 8.620557e+001
      vertex   -2.573107e+001 -2.303219e+002 8.696789e+001
    endloop
  endfacet
  facet normal 4.107075e-001 9.117671e-001 2.123045e-005
    outer loop
      vertex   -2.573107e+001 -2.303219e+002 8.696789e+001
      vertex   -2.558663e+001 -2.303870e+002 8.620557e+001
      vertex   -2.573420e+001 -2.303205e+002 8.620024e+001
    endloop
  endfacet
  facet normal 4.191241e-001 9.079289e-001 -2.020112e-005
    outer loop
      vertex   -2.586694e+001 -2.302592e+002 8.619567e+001
      vertex   -2.573107e+001 -2.303219e+002 8.696789e+001
      vertex   -2.573420e+001 -2.303205e+002 8.620024e+001
    endloop
  endfacet
  facet normal 4.240160e-001 9.056541e-001 -1.065666e-003
    outer loop
      vertex   -2.586694e+001 -2.302592e+002 8.619567e+001
      vertex   -2.603068e+001 -2.301816e+002 8.696789e+001
      vertex   -2.573107e+001 -2.303219e+002 8.696789e+001
    endloop
  endfacet
  facet normal 4.267992e-001 9.043463e-001 -3.441621e-004
    outer loop
      vertex   -2.586694e+001 -2.302592e+002 8.619567e+001
      vertex   -2.598704e+001 -2.302025e+002 8.619171e+001
      vertex   -2.603068e+001 -2.301816e+002 8.696789e+001
    endloop
  endfacet
  facet normal 4.338085e-001 9.010051e-001 1.398447e-004
    outer loop
      vertex   -2.603068e+001 -2.301816e+002 8.696789e+001
      vertex   -2.598704e+001 -2.302025e+002 8.619171e+001
      vertex   -2.609663e+001 -2.301498e+002 8.618825e+001
    endloop
  endfacet
  facet normal 4.403139e-001 8.978437e-001 -5.397250e-004
    outer loop
      vertex   -2.619783e+001 -2.301001e+002 8.618518e+001
      vertex   -2.603068e+001 -2.301816e+002 8.696789e+001
      vertex   -2.609663e+001 -2.301498e+002 8.618825e+001
    endloop
  endfacet
  facet normal 4.420983e-001 8.969660e-001 -1.012193e-003
    outer loop
      vertex   -2.619783e+001 -2.301001e+002 8.618518e+001
      vertex   -2.632098e+001 -2.300386e+002 8.696789e+001
      vertex   -2.603068e+001 -2.301816e+002 8.696789e+001
    endloop
  endfacet
  facet normal 4.491897e-001 8.934363e-001 3.813115e-004
    outer loop
      vertex   -2.619783e+001 -2.301001e+002 8.618518e+001
      vertex   -2.638334e+001 -2.300069e+002 8.617989e+001
      vertex   -2.632098e+001 -2.300386e+002 8.696789e+001
    endloop
  endfacet
  facet normal 4.599040e-001 8.879684e-001 -6.864064e-004
    outer loop
      vertex   -2.632098e+001 -2.300386e+002 8.696789e+001
      vertex   -2.638334e+001 -2.300069e+002 8.617989e+001
      vertex   -2.660242e+001 -2.298928e+002 8.696789e+001
    endloop
  endfacet
  facet normal 4.642405e-001 8.857072e-001 -1.862823e-003
    outer loop
      vertex   -2.632098e+001 -2.300386e+002 8.780000e+001
      vertex   -2.660242e+001 -2.298928e+002 8.696789e+001
      vertex   -2.673950e+001 -2.298192e+002 8.780000e+001
    endloop
  endfacet
  facet normal 4.599041e-001 8.879686e-001 -3.748216e-008
    outer loop
      vertex   -2.632098e+001 -2.300386e+002 8.780000e+001
      vertex   -2.632098e+001 -2.300386e+002 8.696789e+001
      vertex   -2.660242e+001 -2.298928e+002 8.696789e+001
    endloop
  endfacet
  facet normal 4.420986e-001 8.969665e-001 3.793924e-008
    outer loop
      vertex   -2.632098e+001 -2.300386e+002 8.780000e+001
      vertex   -2.603068e+001 -2.301816e+002 8.696789e+001
      vertex   -2.632098e+001 -2.300386e+002 8.696789e+001
    endloop
  endfacet
  facet normal 4.375698e-001 8.991823e-001 -1.960942e-003
    outer loop
      vertex   -2.632098e+001 -2.300386e+002 8.780000e+001
      vertex   -2.588255e+001 -2.302519e+002 8.780000e+001
      vertex   -2.603068e+001 -2.301816e+002 8.696789e+001
    endloop
  endfacet
  facet normal 4.240161e-001 9.056541e-001 9.983201e-004
    outer loop
      vertex   -2.603068e+001 -2.301816e+002 8.696789e+001
      vertex   -2.588255e+001 -2.302519e+002 8.780000e+001
      vertex   -2.573107e+001 -2.303219e+002 8.696789e+001
    endloop
  endfacet
  facet normal 4.605168e-001 8.876509e-001 -4.700699e-004
    outer loop
      vertex   -2.638334e+001 -2.300069e+002 8.617989e+001
      vertex   -2.655989e+001 -2.299153e+002 8.617526e+001
      vertex   -2.660242e+001 -2.298928e+002 8.696789e+001
    endloop
  endfacet
  facet normal 4.718194e-001 8.816952e-001 3.053467e-004
    outer loop
      vertex   -2.660242e+001 -2.298928e+002 8.696789e+001
      vertex   -2.655989e+001 -2.299153e+002 8.617526e+001
      vertex   -2.674325e+001 -2.298171e+002 8.617089e+001
    endloop
  endfacet
  facet normal 4.902127e-001 8.716010e-001 1.825888e-003
    outer loop
      vertex   -2.687542e+001 -2.297445e+002 8.696789e+001
      vertex   -2.674325e+001 -2.298171e+002 8.617089e+001
      vertex   -2.714146e+001 -2.295932e+002 8.616297e+001
    endloop
  endfacet
  facet normal 5.108518e-001 8.596688e-001 -1.376985e-005
    outer loop
      vertex   -2.714044e+001 -2.295938e+002 8.696789e+001
      vertex   -2.714146e+001 -2.295932e+002 8.616297e+001
      vertex   -2.739791e+001 -2.294408e+002 8.696789e+001
    endloop
  endfacet
  facet normal 5.147670e-001 8.573285e-001 -1.658514e-003
    outer loop
      vertex   -2.713958e+001 -2.295943e+002 8.780000e+001
      vertex   -2.739791e+001 -2.294408e+002 8.696789e+001
      vertex   -2.752272e+001 -2.293642e+002 8.780000e+001
    endloop
  endfacet
  facet normal 5.108518e-001 8.596688e-001 -1.130444e-005
    outer loop
      vertex   -2.713958e+001 -2.295943e+002 8.780000e+001
      vertex   -2.714044e+001 -2.295938e+002 8.696789e+001
      vertex   -2.739791e+001 -2.294408e+002 8.696789e+001
    endloop
  endfacet
  facet normal 4.943609e-001 8.692568e-001 1.146938e-005
    outer loop
      vertex   -2.713958e+001 -2.295943e+002 8.780000e+001
      vertex   -2.687542e+001 -2.297445e+002 8.696789e+001
      vertex   -2.714044e+001 -2.295938e+002 8.696789e+001
    endloop
  endfacet
  facet normal 4.900627e-001 8.716853e-001 -1.791439e-003
    outer loop
      vertex   -2.713958e+001 -2.295943e+002 8.780000e+001
      vertex   -2.673950e+001 -2.298192e+002 8.780000e+001
      vertex   -2.687542e+001 -2.297445e+002 8.696789e+001
    endloop
  endfacet
  facet normal 4.773517e-001 8.787119e-001 9.157932e-004
    outer loop
      vertex   -2.687542e+001 -2.297445e+002 8.696789e+001
      vertex   -2.673950e+001 -2.298192e+002 8.780000e+001
      vertex   -2.660242e+001 -2.298928e+002 8.696789e+001
    endloop
  endfacet
  facet normal 4.773516e-001 8.787118e-001 -9.553585e-004
    outer loop
      vertex   -2.674325e+001 -2.298171e+002 8.617089e+001
      vertex   -2.687542e+001 -2.297445e+002 8.696789e+001
      vertex   -2.660242e+001 -2.298928e+002 8.696789e+001
    endloop
  endfacet
  facet normal 5.148976e-001 8.572499e-001 1.733266e-003
    outer loop
      vertex   -2.714146e+001 -2.295932e+002 8.616297e+001
      vertex   -2.752558e+001 -2.293624e+002 8.615745e+001
      vertex   -2.739791e+001 -2.294408e+002 8.696789e+001
    endloop
  endfacet
  facet normal 5.267476e-001 8.500213e-001 -8.320663e-004
    outer loop
      vertex   -2.739791e+001 -2.294408e+002 8.696789e+001
      vertex   -2.752558e+001 -2.293624e+002 8.615745e+001
      vertex   -2.764827e+001 -2.292856e+002 8.696789e+001
    endloop
  endfacet
  facet normal 5.380957e-001 8.428823e-001 -1.575925e-003
    outer loop
      vertex   -2.752272e+001 -2.293642e+002 8.780000e+001
      vertex   -2.764827e+001 -2.292856e+002 8.696789e+001
      vertex   -2.789039e+001 -2.291295e+002 8.780000e+001
    endloop
  endfacet
  facet normal 5.267476e-001 8.500214e-001 8.106529e-004
    outer loop
      vertex   -2.752272e+001 -2.293642e+002 8.780000e+001
      vertex   -2.739791e+001 -2.294408e+002 8.696789e+001
      vertex   -2.764827e+001 -2.292856e+002 8.696789e+001
    endloop
  endfacet
  facet normal 5.382857e-001 8.427609e-001 1.602898e-003
    outer loop
      vertex   -2.752558e+001 -2.293624e+002 8.615745e+001
      vertex   -2.789405e+001 -2.291271e+002 8.615418e+001
      vertex   -2.764827e+001 -2.292856e+002 8.696789e+001
    endloop
  endfacet
  facet normal 5.419758e-001 8.403941e-001 2.722996e-005
    outer loop
      vertex   -2.764827e+001 -2.292856e+002 8.696789e+001
      vertex   -2.789405e+001 -2.291271e+002 8.615418e+001
      vertex   -2.789197e+001 -2.291285e+002 8.696789e+001
    endloop
  endfacet
  facet normal 5.564674e-001 8.308694e-001 -1.950298e-005
    outer loop
      vertex   -2.789039e+001 -2.291295e+002 8.780000e+001
      vertex   -2.789197e+001 -2.291285e+002 8.696789e+001
      vertex   -2.812943e+001 -2.289694e+002 8.696789e+001
    endloop
  endfacet
  facet normal 5.765542e-001 8.170565e-001 1.989711e-003
    outer loop
      vertex   -2.824406e+001 -2.288906e+002 8.780000e+001
      vertex   -2.812943e+001 -2.289694e+002 8.696789e+001
      vertex   -2.858743e+001 -2.286462e+002 8.696789e+001
    endloop
  endfacet
  facet normal 5.975809e-001 8.018086e-001 -3.468545e-005
    outer loop
      vertex   -2.858523e+001 -2.286478e+002 8.780000e+001
      vertex   -2.858743e+001 -2.286462e+002 8.696789e+001
      vertex   -2.891537e+001 -2.284018e+002 8.780000e+001
    endloop
  endfacet
  facet normal 5.797001e-001 8.148299e-001 3.779863e-005
    outer loop
      vertex   -2.858523e+001 -2.286478e+002 8.780000e+001
      vertex   -2.824406e+001 -2.288906e+002 8.780000e+001
      vertex   -2.858743e+001 -2.286462e+002 8.696789e+001
    endloop
  endfacet
  facet normal 5.564674e-001 8.308694e-001 -2.590316e-005
    outer loop
      vertex   -2.789197e+001 -2.291285e+002 8.696789e+001
      vertex   -2.789405e+001 -2.291271e+002 8.615418e+001
      vertex   -2.812943e+001 -2.289694e+002 8.696789e+001
    endloop
  endfacet
  facet normal 5.600406e-001 8.284638e-001 1.473854e-003
    outer loop
      vertex   -2.812943e+001 -2.289694e+002 8.696789e+001
      vertex   -2.789405e+001 -2.291271e+002 8.615418e+001
      vertex   -2.824834e+001 -2.288876e+002 8.615294e+001
    endloop
  endfacet
  facet normal 5.799482e-001 8.146533e-001 4.296793e-005
    outer loop
      vertex   -2.858743e+001 -2.286462e+002 8.696789e+001
      vertex   -2.824834e+001 -2.288876e+002 8.615294e+001
      vertex   -2.858992e+001 -2.286444e+002 8.615351e+001
    endloop
  endfacet
  facet normal 5.978247e-001 8.016269e-001 -4.051245e-005
    outer loop
      vertex   -2.892027e+001 -2.283980e+002 8.615569e+001
      vertex   -2.858743e+001 -2.286462e+002 8.696789e+001
      vertex   -2.858992e+001 -2.286444e+002 8.615351e+001
    endloop
  endfacet
  facet normal 6.003950e-001 7.997019e-001 -1.682020e-003
    outer loop
      vertex   -2.892027e+001 -2.283980e+002 8.615569e+001
      vertex   -2.902581e+001 -2.283171e+002 8.696789e+001
      vertex   -2.858743e+001 -2.286462e+002 8.696789e+001
    endloop
  endfacet
  facet normal 6.135330e-001 7.896684e-001 1.024998e-003
    outer loop
      vertex   -2.892027e+001 -2.283980e+002 8.615569e+001
      vertex   -2.924087e+001 -2.281490e+002 8.615924e+001
      vertex   -2.902581e+001 -2.283171e+002 8.696789e+001
    endloop
  endfacet
  facet normal 6.203527e-001 7.843207e-001 -1.900702e-003
    outer loop
      vertex   -2.902581e+001 -2.283171e+002 8.696789e+001
      vertex   -2.924087e+001 -2.281490e+002 8.615924e+001
      vertex   -2.944807e+001 -2.279831e+002 8.696789e+001
    endloop
  endfacet
  facet normal 6.267476e-001 7.792219e-001 -8.213292e-004
    outer loop
      vertex   -2.923596e+001 -2.281528e+002 8.780000e+001
      vertex   -2.944807e+001 -2.279831e+002 8.696789e+001
      vertex   -2.954848e+001 -2.279015e+002 8.780000e+001
    endloop
  endfacet
  facet normal 6.203527e-001 7.843208e-001 1.848736e-003
    outer loop
      vertex   -2.923596e+001 -2.281528e+002 8.780000e+001
      vertex   -2.902581e+001 -2.283171e+002 8.696789e+001
      vertex   -2.944807e+001 -2.279831e+002 8.696789e+001
    endloop
  endfacet
  facet normal 6.133028e-001 7.898472e-001 -1.022665e-003
    outer loop
      vertex   -2.923596e+001 -2.281528e+002 8.780000e+001
      vertex   -2.891537e+001 -2.284018e+002 8.780000e+001
      vertex   -2.902581e+001 -2.283171e+002 8.696789e+001
    endloop
  endfacet
  facet normal 6.003950e-001 7.997018e-001 1.693243e-003
    outer loop
      vertex   -2.902581e+001 -2.283171e+002 8.696789e+001
      vertex   -2.891537e+001 -2.284018e+002 8.780000e+001
      vertex   -2.858743e+001 -2.286462e+002 8.696789e+001
    endloop
  endfacet
  facet normal 5.765541e-001 8.170563e-001 -2.080983e-003
    outer loop
      vertex   -2.812943e+001 -2.289694e+002 8.696789e+001
      vertex   -2.824834e+001 -2.288876e+002 8.615294e+001
      vertex   -2.858743e+001 -2.286462e+002 8.696789e+001
    endloop
  endfacet
  facet normal 6.269442e-001 7.790637e-001 8.663011e-004
    outer loop
      vertex   -2.924087e+001 -2.281490e+002 8.615924e+001
      vertex   -2.955319e+001 -2.278976e+002 8.616396e+001
      vertex   -2.944807e+001 -2.279831e+002 8.696789e+001
    endloop
  endfacet
  facet normal 6.361545e-001 7.715608e-001 -1.135978e-003
    outer loop
      vertex   -2.944807e+001 -2.279831e+002 8.696789e+001
      vertex   -2.955319e+001 -2.278976e+002 8.616396e+001
      vertex   -2.985682e+001 -2.276461e+002 8.696789e+001
    endloop
  endfacet
  facet normal 6.378245e-001 7.701817e-001 2.344978e-005
    outer loop
      vertex   -2.954848e+001 -2.279015e+002 8.780000e+001
      vertex   -2.985682e+001 -2.276461e+002 8.696789e+001
      vertex   -2.985442e+001 -2.276481e+002 8.780000e+001
    endloop
  endfacet
  facet normal 6.361546e-001 7.715609e-001 1.065541e-003
    outer loop
      vertex   -2.954848e+001 -2.279015e+002 8.780000e+001
      vertex   -2.944807e+001 -2.279831e+002 8.696789e+001
      vertex   -2.985682e+001 -2.276461e+002 8.696789e+001
    endloop
  endfacet
  facet normal 6.379698e-001 7.700614e-001 1.875783e-005
    outer loop
      vertex   -2.955319e+001 -2.278976e+002 8.616396e+001
      vertex   -2.985871e+001 -2.276445e+002 8.616962e+001
      vertex   -2.985682e+001 -2.276461e+002 8.696789e+001
    endloop
  endfacet
  facet normal 6.476378e-001 7.619484e-001 -2.006799e-005
    outer loop
      vertex   -2.985682e+001 -2.276461e+002 8.696789e+001
      vertex   -2.985871e+001 -2.276445e+002 8.616962e+001
      vertex   -3.025654e+001 -2.273064e+002 8.696789e+001
    endloop
  endfacet
  facet normal 6.495473e-001 7.603195e-001 -1.616775e-003
    outer loop
      vertex   -2.985442e+001 -2.276481e+002 8.780000e+001
      vertex   -3.025654e+001 -2.273064e+002 8.696789e+001
      vertex   -3.045244e+001 -2.271372e+002 8.780000e+001
    endloop
  endfacet
  facet normal 6.476378e-001 7.619484e-001 -2.494851e-005
    outer loop
      vertex   -2.985442e+001 -2.276481e+002 8.780000e+001
      vertex   -2.985682e+001 -2.276461e+002 8.696789e+001
      vertex   -3.025654e+001 -2.273064e+002 8.696789e+001
    endloop
  endfacet
  facet normal 6.496432e-001 7.602373e-001 1.704253e-003
    outer loop
      vertex   -2.985871e+001 -2.276445e+002 8.616962e+001
      vertex   -3.045518e+001 -2.271348e+002 8.618291e+001
      vertex   -3.025654e+001 -2.273064e+002 8.696789e+001
    endloop
  endfacet
  facet normal 6.535019e-001 7.569249e-001 4.148196e-006
    outer loop
      vertex   -3.025654e+001 -2.273064e+002 8.696789e+001
      vertex   -3.045518e+001 -2.271348e+002 8.618291e+001
      vertex   -3.045244e+001 -2.271372e+002 8.780000e+001
    endloop
  endfacet
  facet normal 6.568716e-001 7.540024e-001 -5.861704e-006
    outer loop
      vertex   -3.045244e+001 -2.271372e+002 8.780000e+001
      vertex   -3.045518e+001 -2.271348e+002 8.618291e+001
      vertex   -3.104264e+001 -2.266231e+002 8.619741e+001
    endloop
  endfacet
  facet normal 6.568622e-001 7.540106e-001 2.491337e-007
    outer loop
      vertex   -3.104187e+001 -2.266237e+002 8.780000e+001
      vertex   -3.045244e+001 -2.271372e+002 8.780000e+001
      vertex   -3.104264e+001 -2.266231e+002 8.619741e+001
    endloop
  endfacet
  facet normal 5.598107e-001 8.286194e-001 -1.412798e-003
    outer loop
      vertex   -2.824406e+001 -2.288906e+002 8.780000e+001
      vertex   -2.789039e+001 -2.291295e+002 8.780000e+001
      vertex   -2.812943e+001 -2.289694e+002 8.696789e+001
    endloop
  endfacet
  facet normal 5.419758e-001 8.403941e-001 1.988658e-005
    outer loop
      vertex   -2.789197e+001 -2.291285e+002 8.696789e+001
      vertex   -2.789039e+001 -2.291295e+002 8.780000e+001
      vertex   -2.764827e+001 -2.292856e+002 8.696789e+001
    endloop
  endfacet
  facet normal 4.943609e-001 8.692568e-001 1.417322e-005
    outer loop
      vertex   -2.687542e+001 -2.297445e+002 8.696789e+001
      vertex   -2.714146e+001 -2.295932e+002 8.616297e+001
      vertex   -2.714044e+001 -2.295938e+002 8.696789e+001
    endloop
  endfacet
  facet normal 0.000000e+000 -0.000000e+000 1.000000e+000
    outer loop
      vertex   -2.765897e+001 -2.354339e+002 8.780000e+001
      vertex   -2.542273e+001 -2.304588e+002 8.780000e+001
      vertex   -2.818148e+001 -2.351777e+002 8.780000e+001
    endloop
  endfacet
  facet normal 0.000000e+000 -0.000000e+000 1.000000e+000
    outer loop
      vertex   -2.818148e+001 -2.351777e+002 8.780000e+001
      vertex   -2.542273e+001 -2.304588e+002 8.780000e+001
      vertex   -2.565541e+001 -2.303562e+002 8.780000e+001
    endloop
  endfacet
  facet normal 0.000000e+000 -0.000000e+000 1.000000e+000
    outer loop
      vertex   -2.869873e+001 -2.349161e+002 8.780000e+001
      vertex   -2.565541e+001 -2.303562e+002 8.780000e+001
      vertex   -2.588255e+001 -2.302519e+002 8.780000e+001
    endloop
  endfacet
  facet normal 2.368823e-014 -1.792942e-014 1.000000e+000
    outer loop
      vertex   -2.921011e+001 -2.346482e+002 8.780000e+001
      vertex   -2.588255e+001 -2.302519e+002 8.780000e+001
      vertex   -2.632098e+001 -2.300386e+002 8.780000e+001
    endloop
  endfacet
  facet normal -2.529381e-014 1.652488e-014 1.000000e+000
    outer loop
      vertex   -2.971499e+001 -2.343736e+002 8.780000e+001
      vertex   -2.632098e+001 -2.300386e+002 8.780000e+001
      vertex   -2.673950e+001 -2.298192e+002 8.780000e+001
    endloop
  endfacet
  facet normal 0.000000e+000 -0.000000e+000 1.000000e+000
    outer loop
      vertex   -3.021276e+001 -2.340915e+002 8.780000e+001
      vertex   -2.673950e+001 -2.298192e+002 8.780000e+001
      vertex   -2.713958e+001 -2.295943e+002 8.780000e+001
    endloop
  endfacet
  facet normal 0.000000e+000 -0.000000e+000 1.000000e+000
    outer loop
      vertex   -3.070279e+001 -2.338014e+002 8.780000e+001
      vertex   -2.713958e+001 -2.295943e+002 8.780000e+001
      vertex   -2.752272e+001 -2.293642e+002 8.780000e+001
    endloop
  endfacet
  facet normal 0.000000e+000 -0.000000e+000 1.000000e+000
    outer loop
      vertex   -3.118449e+001 -2.335025e+002 8.780000e+001
      vertex   -2.752272e+001 -2.293642e+002 8.780000e+001
      vertex   -2.789039e+001 -2.291295e+002 8.780000e+001
    endloop
  endfacet
  facet normal 0.000000e+000 -0.000000e+000 1.000000e+000
    outer loop
      vertex   -3.165722e+001 -2.331941e+002 8.780000e+001
      vertex   -2.789039e+001 -2.291295e+002 8.780000e+001
      vertex   -2.824406e+001 -2.288906e+002 8.780000e+001
    endloop
  endfacet
  facet normal 0.000000e+000 -0.000000e+000 1.000000e+000
    outer loop
      vertex   -3.212036e+001 -2.328758e+002 8.780000e+001
      vertex   -2.824406e+001 -2.288906e+002 8.780000e+001
      vertex   -2.858523e+001 -2.286478e+002 8.780000e+001
    endloop
  endfacet
  facet normal 0.000000e+000 -0.000000e+000 1.000000e+000
    outer loop
      vertex   -3.257332e+001 -2.325467e+002 8.780000e+001
      vertex   -2.858523e+001 -2.286478e+002 8.780000e+001
      vertex   -2.891537e+001 -2.284018e+002 8.780000e+001
    endloop
  endfacet
  facet normal 0.000000e+000 -0.000000e+000 1.000000e+000
    outer loop
      vertex   -3.301545e+001 -2.322064e+002 8.780000e+001
      vertex   -2.891537e+001 -2.284018e+002 8.780000e+001
      vertex   -2.923596e+001 -2.281528e+002 8.780000e+001
    endloop
  endfacet
  facet normal 0.000000e+000 -0.000000e+000 1.000000e+000
    outer loop
      vertex   -3.344616e+001 -2.318540e+002 8.780000e+001
      vertex   -2.923596e+001 -2.281528e+002 8.780000e+001
      vertex   -2.954848e+001 -2.279015e+002 8.780000e+001
    endloop
  endfacet
  facet normal 1.643184e-015 1.984167e-015 1.000000e+000
    outer loop
      vertex   -3.386482e+001 -2.314890e+002 8.780000e+001
      vertex   -2.954848e+001 -2.279015e+002 8.780000e+001
      vertex   -2.985442e+001 -2.276481e+002 8.780000e+001
    endloop
  endfacet
  facet normal 1.137200e-014 -1.450418e-014 1.000000e+000
    outer loop
      vertex   -3.427081e+001 -2.311108e+002 8.780000e+001
      vertex   -2.985442e+001 -2.276481e+002 8.780000e+001
      vertex   -3.045244e+001 -2.271372e+002 8.780000e+001
    endloop
  endfacet
  facet normal -1.883075e-015 -1.753806e-015 1.000000e+000
    outer loop
      vertex   -3.466352e+001 -2.307186e+002 8.780000e+001
      vertex   -3.045244e+001 -2.271372e+002 8.780000e+001
      vertex   -3.504233e+001 -2.303119e+002 8.780000e+001
    endloop
  endfacet
  facet normal -1.822508e-015 -1.825021e-015 1.000000e+000
    outer loop
      vertex   -3.466352e+001 -2.307186e+002 8.780000e+001
      vertex   -3.427081e+001 -2.311108e+002 8.780000e+001
      vertex   -3.045244e+001 -2.271372e+002 8.780000e+001
    endloop
  endfacet
  facet normal 0.000000e+000 -0.000000e+000 1.000000e+000
    outer loop
      vertex   -2.818148e+001 -2.351777e+002 8.780000e+001
      vertex   -2.565541e+001 -2.303562e+002 8.780000e+001
      vertex   -2.869873e+001 -2.349161e+002 8.780000e+001
    endloop
  endfacet
  facet normal 0.000000e+000 -0.000000e+000 1.000000e+000
    outer loop
      vertex   -2.869873e+001 -2.349161e+002 8.780000e+001
      vertex   -2.588255e+001 -2.302519e+002 8.780000e+001
      vertex   -2.921011e+001 -2.346482e+002 8.780000e+001
    endloop
  endfacet
  facet normal -1.250538e-015 -2.299043e-015 1.000000e+000
    outer loop
      vertex   -2.921011e+001 -2.346482e+002 8.780000e+001
      vertex   -2.632098e+001 -2.300386e+002 8.780000e+001
      vertex   -2.971499e+001 -2.343736e+002 8.780000e+001
    endloop
  endfacet
  facet normal 0.000000e+000 -0.000000e+000 1.000000e+000
    outer loop
      vertex   -2.971499e+001 -2.343736e+002 8.780000e+001
      vertex   -2.673950e+001 -2.298192e+002 8.780000e+001
      vertex   -3.021276e+001 -2.340915e+002 8.780000e+001
    endloop
  endfacet
  facet normal 0.000000e+000 -0.000000e+000 1.000000e+000
    outer loop
      vertex   -3.021276e+001 -2.340915e+002 8.780000e+001
      vertex   -2.713958e+001 -2.295943e+002 8.780000e+001
      vertex   -3.070279e+001 -2.338014e+002 8.780000e+001
    endloop
  endfacet
  facet normal 0.000000e+000 -0.000000e+000 1.000000e+000
    outer loop
      vertex   -3.070279e+001 -2.338014e+002 8.780000e+001
      vertex   -2.752272e+001 -2.293642e+002 8.780000e+001
      vertex   -3.118449e+001 -2.335025e+002 8.780000e+001
    endloop
  endfacet
  facet normal 0.000000e+000 -0.000000e+000 1.000000e+000
    outer loop
      vertex   -3.118449e+001 -2.335025e+002 8.780000e+001
      vertex   -2.789039e+001 -2.291295e+002 8.780000e+001
      vertex   -3.165722e+001 -2.331941e+002 8.780000e+001
    endloop
  endfacet
  facet normal 0.000000e+000 -0.000000e+000 1.000000e+000
    outer loop
      vertex   -3.165722e+001 -2.331941e+002 8.780000e+001
      vertex   -2.824406e+001 -2.288906e+002 8.780000e+001
      vertex   -3.212036e+001 -2.328758e+002 8.780000e+001
    endloop
  endfacet
  facet normal 0.000000e+000 -0.000000e+000 1.000000e+000
    outer loop
      vertex   -3.212036e+001 -2.328758e+002 8.780000e+001
      vertex   -2.858523e+001 -2.286478e+002 8.780000e+001
      vertex   -3.257332e+001 -2.325467e+002 8.780000e+001
    endloop
  endfacet
  facet normal 0.000000e+000 -0.000000e+000 1.000000e+000
    outer loop
      vertex   -3.257332e+001 -2.325467e+002 8.780000e+001
      vertex   -2.891537e+001 -2.284018e+002 8.780000e+001
      vertex   -3.301545e+001 -2.322064e+002 8.780000e+001
    endloop
  endfacet
  facet normal 0.000000e+000 -0.000000e+000 1.000000e+000
    outer loop
      vertex   -3.301545e+001 -2.322064e+002 8.780000e+001
      vertex   -2.923596e+001 -2.281528e+002 8.780000e+001
      vertex   -3.344616e+001 -2.318540e+002 8.780000e+001
    endloop
  endfacet
  facet normal 1.825256e-014 -1.799920e-014 1.000000e+000
    outer loop
      vertex   -3.344616e+001 -2.318540e+002 8.780000e+001
      vertex   -2.954848e+001 -2.279015e+002 8.780000e+001
      vertex   -3.386482e+001 -2.314890e+002 8.780000e+001
    endloop
  endfacet
  facet normal -1.599562e-014 2.040127e-014 1.000000e+000
    outer loop
      vertex   -3.386482e+001 -2.314890e+002 8.780000e+001
      vertex   -2.985442e+001 -2.276481e+002 8.780000e+001
      vertex   -3.427081e+001 -2.311108e+002 8.780000e+001
    endloop
  endfacet
  facet normal -1.239603e-014 1.344567e-014 1.000000e+000
    outer loop
      vertex   -3.045244e+001 -2.271372e+002 8.780000e+001
      vertex   -3.104187e+001 -2.266237e+002 8.780000e+001
      vertex   -3.504233e+001 -2.303119e+002 8.780000e+001
    endloop
  endfacet
  facet normal 9.960050e-002 1.422443e-001 -9.848078e-001
    outer loop
      vertex   -3.104264e+001 -2.266231e+002 8.619741e+001
      vertex   -3.045518e+001 -2.271348e+002 8.618291e+001
      vertex   -3.504340e+001 -2.303107e+002 8.526015e+001
    endloop
  endfacet
  facet normal 9.960050e-002 1.422443e-001 -9.848078e-001
    outer loop
      vertex   -3.504340e+001 -2.303107e+002 8.526015e+001
      vertex   -3.045518e+001 -2.271348e+002 8.618291e+001
      vertex   -3.489972e+001 -2.304686e+002 8.525188e+001
    endloop
  endfacet
  facet normal 9.960050e-002 1.422443e-001 -9.848078e-001
    outer loop
      vertex   -3.489972e+001 -2.304686e+002 8.525188e+001
      vertex   -3.045518e+001 -2.271348e+002 8.618291e+001
      vertex   -3.476535e+001 -2.306122e+002 8.524472e+001
    endloop
  endfacet
  facet normal 9.960050e-002 1.422443e-001 -9.848078e-001
    outer loop
      vertex   -3.476535e+001 -2.306122e+002 8.524472e+001
      vertex   -3.045518e+001 -2.271348e+002 8.618291e+001
      vertex   -3.463944e+001 -2.307435e+002 8.523850e+001
    endloop
  endfacet
  facet normal 9.960050e-002 1.422443e-001 -9.848078e-001
    outer loop
      vertex   -3.463944e+001 -2.307435e+002 8.523850e+001
      vertex   -3.045518e+001 -2.271348e+002 8.618291e+001
      vertex   -3.452098e+001 -2.308642e+002 8.523304e+001
    endloop
  endfacet
  facet normal 9.960050e-002 1.422443e-001 -9.848078e-001
    outer loop
      vertex   -3.452098e+001 -2.308642e+002 8.523304e+001
      vertex   -3.045518e+001 -2.271348e+002 8.618291e+001
      vertex   -3.440887e+001 -2.309761e+002 8.522822e+001
    endloop
  endfacet
  facet normal 9.960050e-002 1.422443e-001 -9.848078e-001
    outer loop
      vertex   -3.440887e+001 -2.309761e+002 8.522822e+001
      vertex   -3.045518e+001 -2.271348e+002 8.618291e+001
      vertex   -2.985871e+001 -2.276445e+002 8.616962e+001
    endloop
  endfacet
  facet normal 9.960050e-002 1.422443e-001 -9.848078e-001
    outer loop
      vertex   -3.430192e+001 -2.310807e+002 8.522392e+001
      vertex   -2.985871e+001 -2.276445e+002 8.616962e+001
      vertex   -3.409826e+001 -2.312747e+002 8.521650e+001
    endloop
  endfacet
  facet normal 9.960050e-002 1.422443e-001 -9.848078e-001
    outer loop
      vertex   -3.430192e+001 -2.310807e+002 8.522392e+001
      vertex   -3.440887e+001 -2.309761e+002 8.522822e+001
      vertex   -2.985871e+001 -2.276445e+002 8.616962e+001
    endloop
  endfacet
  facet normal 9.960050e-002 1.422443e-001 -9.848078e-001
    outer loop
      vertex   -3.409826e+001 -2.312747e+002 8.521650e+001
      vertex   -2.985871e+001 -2.276445e+002 8.616962e+001
      vertex   -3.389904e+001 -2.314581e+002 8.521016e+001
    endloop
  endfacet
  facet normal 9.960050e-002 1.422443e-001 -9.848078e-001
    outer loop
      vertex   -3.389904e+001 -2.314581e+002 8.521016e+001
      vertex   -2.985871e+001 -2.276445e+002 8.616962e+001
      vertex   -2.955319e+001 -2.278976e+002 8.616396e+001
    endloop
  endfacet
  facet normal 9.960050e-002 1.422443e-001 -9.848078e-001
    outer loop
      vertex   -3.369258e+001 -2.316421e+002 8.520447e+001
      vertex   -2.955319e+001 -2.278976e+002 8.616396e+001
      vertex   -3.358284e+001 -2.317374e+002 8.520179e+001
    endloop
  endfacet
  facet normal 9.960050e-002 1.422443e-001 -9.848078e-001
    outer loop
      vertex   -3.369258e+001 -2.316421e+002 8.520447e+001
      vertex   -3.389904e+001 -2.314581e+002 8.521016e+001
      vertex   -2.955319e+001 -2.278976e+002 8.616396e+001
    endloop
  endfacet
  facet normal 9.960050e-002 1.422443e-001 -9.848078e-001
    outer loop
      vertex   -3.358284e+001 -2.317374e+002 8.520179e+001
      vertex   -2.955319e+001 -2.278976e+002 8.616396e+001
      vertex   -3.346668e+001 -2.318367e+002 8.519921e+001
    endloop
  endfacet
  facet normal 9.960050e-002 1.422443e-001 -9.848078e-001
    outer loop
      vertex   -3.346668e+001 -2.318367e+002 8.519921e+001
      vertex   -2.955319e+001 -2.278976e+002 8.616396e+001
      vertex   -2.924087e+001 -2.281490e+002 8.615924e+001
    endloop
  endfacet
  facet normal 9.960050e-002 1.422443e-001 -9.848078e-001
    outer loop
      vertex   -3.321922e+001 -2.320424e+002 8.519452e+001
      vertex   -2.924087e+001 -2.281490e+002 8.615924e+001
      vertex   -3.296867e+001 -2.322434e+002 8.519083e+001
    endloop
  endfacet
  facet normal 9.960050e-002 1.422443e-001 -9.848078e-001
    outer loop
      vertex   -3.321922e+001 -2.320424e+002 8.519452e+001
      vertex   -3.346668e+001 -2.318367e+002 8.519921e+001
      vertex   -2.924087e+001 -2.281490e+002 8.615924e+001
    endloop
  endfacet
  facet normal 9.960050e-002 1.422443e-001 -9.848078e-001
    outer loop
      vertex   -2.924087e+001 -2.281490e+002 8.615924e+001
      vertex   -2.892027e+001 -2.283980e+002 8.615569e+001
      vertex   -3.296867e+001 -2.322434e+002 8.519083e+001
    endloop
  endfacet
  facet normal 9.960050e-002 1.422443e-001 -9.848078e-001
    outer loop
      vertex   -3.296867e+001 -2.322434e+002 8.519083e+001
      vertex   -2.892027e+001 -2.283980e+002 8.615569e+001
      vertex   -3.271632e+001 -2.324388e+002 8.518812e+001
    endloop
  endfacet
  facet normal 9.960050e-002 1.422443e-001 -9.848078e-001
    outer loop
      vertex   -3.271632e+001 -2.324388e+002 8.518812e+001
      vertex   -2.892027e+001 -2.283980e+002 8.615569e+001
      vertex   -2.858992e+001 -2.286444e+002 8.615351e+001
    endloop
  endfacet
  facet normal 9.960050e-002 1.422443e-001 -9.848078e-001
    outer loop
      vertex   -3.220809e+001 -2.328135e+002 8.518541e+001
      vertex   -2.858992e+001 -2.286444e+002 8.615351e+001
      vertex   -2.824834e+001 -2.288876e+002 8.615294e+001
    endloop
  endfacet
  facet normal 9.960050e-002 1.422443e-001 -9.848078e-001
    outer loop
      vertex   -3.169825e+001 -2.331666e+002 8.518597e+001
      vertex   -2.824834e+001 -2.288876e+002 8.615294e+001
      vertex   -2.789405e+001 -2.291271e+002 8.615418e+001
    endloop
  endfacet
  facet normal 9.960050e-002 1.422443e-001 -9.848078e-001
    outer loop
      vertex   -3.119060e+001 -2.334986e+002 8.518936e+001
      vertex   -2.789405e+001 -2.291271e+002 8.615418e+001
      vertex   -2.752558e+001 -2.293624e+002 8.615745e+001
    endloop
  endfacet
  facet normal 9.960050e-002 1.422443e-001 -9.848078e-001
    outer loop
      vertex   -3.068895e+001 -2.338098e+002 8.519515e+001
      vertex   -2.752558e+001 -2.293624e+002 8.615745e+001
      vertex   -2.714146e+001 -2.295932e+002 8.616297e+001
    endloop
  endfacet
  facet normal 9.960050e-002 1.422443e-001 -9.848078e-001
    outer loop
      vertex   -3.044155e+001 -2.339577e+002 8.519880e+001
      vertex   -2.714146e+001 -2.295932e+002 8.616297e+001
      vertex   -3.019707e+001 -2.341006e+002 8.520288e+001
    endloop
  endfacet
  facet normal 9.960050e-002 1.422443e-001 -9.848078e-001
    outer loop
      vertex   -3.044155e+001 -2.339577e+002 8.519880e+001
      vertex   -3.068895e+001 -2.338098e+002 8.519515e+001
      vertex   -2.714146e+001 -2.295932e+002 8.616297e+001
    endloop
  endfacet
  facet normal 9.960050e-002 1.422443e-001 -9.848078e-001
    outer loop
      vertex   -3.271632e+001 -2.324388e+002 8.518812e+001
      vertex   -2.858992e+001 -2.286444e+002 8.615351e+001
      vertex   -3.220809e+001 -2.328135e+002 8.518541e+001
    endloop
  endfacet
  facet normal 9.960050e-002 1.422443e-001 -9.848078e-001
    outer loop
      vertex   -3.220809e+001 -2.328135e+002 8.518541e+001
      vertex   -2.824834e+001 -2.288876e+002 8.615294e+001
      vertex   -3.169825e+001 -2.331666e+002 8.518597e+001
    endloop
  endfacet
  facet normal 9.960050e-002 1.422443e-001 -9.848078e-001
    outer loop
      vertex   -3.169825e+001 -2.331666e+002 8.518597e+001
      vertex   -2.789405e+001 -2.291271e+002 8.615418e+001
      vertex   -3.119060e+001 -2.334986e+002 8.518936e+001
    endloop
  endfacet
  facet normal 9.960050e-002 1.422443e-001 -9.848078e-001
    outer loop
      vertex   -3.119060e+001 -2.334986e+002 8.518936e+001
      vertex   -2.752558e+001 -2.293624e+002 8.615745e+001
      vertex   -3.068895e+001 -2.338098e+002 8.519515e+001
    endloop
  endfacet
  facet normal 9.960050e-002 1.422443e-001 -9.848078e-001
    outer loop
      vertex   -3.019707e+001 -2.341006e+002 8.520288e+001
      vertex   -2.714146e+001 -2.295932e+002 8.616297e+001
      vertex   -2.995597e+001 -2.342386e+002 8.520734e+001
    endloop
  endfacet
  facet normal 9.960050e-002 1.422443e-001 -9.848078e-001
    outer loop
      vertex   -2.995597e+001 -2.342386e+002 8.520734e+001
      vertex   -2.714146e+001 -2.295932e+002 8.616297e+001
      vertex   -2.674325e+001 -2.298171e+002 8.617089e+001
    endloop
  endfacet
  facet normal 9.960050e-002 1.422443e-001 -9.848078e-001
    outer loop
      vertex   -2.971872e+001 -2.343716e+002 8.521213e+001
      vertex   -2.674325e+001 -2.298171e+002 8.617089e+001
      vertex   -2.655989e+001 -2.299153e+002 8.617526e+001
    endloop
  endfacet
  facet normal 9.960050e-002 1.422443e-001 -9.848078e-001
    outer loop
      vertex   -2.948578e+001 -2.344996e+002 8.521719e+001
      vertex   -2.655989e+001 -2.299153e+002 8.617526e+001
      vertex   -2.638334e+001 -2.300069e+002 8.617989e+001
    endloop
  endfacet
  facet normal 9.960050e-002 1.422443e-001 -9.848078e-001
    outer loop
      vertex   -2.619783e+001 -2.301001e+002 8.618518e+001
      vertex   -2.948578e+001 -2.344996e+002 8.521719e+001
      vertex   -2.638334e+001 -2.300069e+002 8.617989e+001
    endloop
  endfacet
  facet normal 9.960050e-002 1.422443e-001 -9.848078e-001
    outer loop
      vertex   -2.619783e+001 -2.301001e+002 8.618518e+001
      vertex   -2.609663e+001 -2.301498e+002 8.618825e+001
      vertex   -2.948578e+001 -2.344996e+002 8.521719e+001
    endloop
  endfacet
  facet normal 9.960050e-002 1.422443e-001 -9.848078e-001
    outer loop
      vertex   -2.948578e+001 -2.344996e+002 8.521719e+001
      vertex   -2.609663e+001 -2.301498e+002 8.618825e+001
      vertex   -2.598704e+001 -2.302025e+002 8.619171e+001
    endloop
  endfacet
  facet normal 9.960050e-002 1.422443e-001 -9.848078e-001
    outer loop
      vertex   -2.586694e+001 -2.302592e+002 8.619567e+001
      vertex   -2.948578e+001 -2.344996e+002 8.521719e+001
      vertex   -2.598704e+001 -2.302025e+002 8.619171e+001
    endloop
  endfacet
  facet normal 9.960050e-002 1.422443e-001 -9.848078e-001
    outer loop
      vertex   -2.586694e+001 -2.302592e+002 8.619567e+001
      vertex   -2.925761e+001 -2.346229e+002 8.522247e+001
      vertex   -2.948578e+001 -2.344996e+002 8.521719e+001
    endloop
  endfacet
  facet normal 9.960050e-002 1.422443e-001 -9.848078e-001
    outer loop
      vertex   -2.586694e+001 -2.302592e+002 8.619567e+001
      vertex   -2.765788e+001 -2.354344e+002 8.526704e+001
      vertex   -2.925761e+001 -2.346229e+002 8.522247e+001
    endloop
  endfacet
  facet normal 9.960050e-002 1.422443e-001 -9.848078e-001
    outer loop
      vertex   -2.586694e+001 -2.302592e+002 8.619567e+001
      vertex   -2.573420e+001 -2.303205e+002 8.620024e+001
      vertex   -2.765788e+001 -2.354344e+002 8.526704e+001
    endloop
  endfacet
  facet normal 9.960050e-002 1.422443e-001 -9.848078e-001
    outer loop
      vertex   -2.765788e+001 -2.354344e+002 8.526704e+001
      vertex   -2.573420e+001 -2.303205e+002 8.620024e+001
      vertex   -2.558663e+001 -2.303870e+002 8.620557e+001
    endloop
  endfacet
  facet normal 9.960050e-002 1.422443e-001 -9.848078e-001
    outer loop
      vertex   -2.542204e+001 -2.304591e+002 8.621179e+001
      vertex   -2.765788e+001 -2.354344e+002 8.526704e+001
      vertex   -2.558663e+001 -2.303870e+002 8.620557e+001
    endloop
  endfacet
  facet normal 9.960050e-002 1.422443e-001 -9.848078e-001
    outer loop
      vertex   -2.995597e+001 -2.342386e+002 8.520734e+001
      vertex   -2.674325e+001 -2.298171e+002 8.617089e+001
      vertex   -2.971872e+001 -2.343716e+002 8.521213e+001
    endloop
  endfacet
  facet normal 9.960050e-002 1.422443e-001 -9.848078e-001
    outer loop
      vertex   -2.971872e+001 -2.343716e+002 8.521213e+001
      vertex   -2.655989e+001 -2.299153e+002 8.617526e+001
      vertex   -2.948578e+001 -2.344996e+002 8.521719e+001
    endloop
  endfacet
  facet normal 9.960050e-002 1.422443e-001 -9.848078e-001
    outer loop
      vertex   -2.783178e+001 -2.353500e+002 8.526165e+001
      vertex   -2.801400e+001 -2.352607e+002 8.525612e+001
      vertex   -2.765788e+001 -2.354344e+002 8.526704e+001
    endloop
  endfacet
  facet normal 9.960050e-002 1.422443e-001 -9.848078e-001
    outer loop
      vertex   -2.765788e+001 -2.354344e+002 8.526704e+001
      vertex   -2.801400e+001 -2.352607e+002 8.525612e+001
      vertex   -2.820411e+001 -2.351665e+002 8.525050e+001
    endloop
  endfacet
  facet normal 9.960050e-002 1.422443e-001 -9.848078e-001
    outer loop
      vertex   -2.840167e+001 -2.350674e+002 8.524483e+001
      vertex   -2.765788e+001 -2.354344e+002 8.526704e+001
      vertex   -2.820411e+001 -2.351665e+002 8.525050e+001
    endloop
  endfacet
  facet normal 9.960050e-002 1.422443e-001 -9.848078e-001
    outer loop
      vertex   -2.840167e+001 -2.350674e+002 8.524483e+001
      vertex   -2.860624e+001 -2.349635e+002 8.523914e+001
      vertex   -2.765788e+001 -2.354344e+002 8.526704e+001
    endloop
  endfacet
  facet normal 9.960050e-002 1.422443e-001 -9.848078e-001
    outer loop
      vertex   -2.765788e+001 -2.354344e+002 8.526704e+001
      vertex   -2.860624e+001 -2.349635e+002 8.523914e+001
      vertex   -2.881739e+001 -2.348548e+002 8.523349e+001
    endloop
  endfacet
  facet normal 9.960050e-002 1.422443e-001 -9.848078e-001
    outer loop
      vertex   -2.903466e+001 -2.347412e+002 8.522792e+001
      vertex   -2.765788e+001 -2.354344e+002 8.526704e+001
      vertex   -2.881739e+001 -2.348548e+002 8.523349e+001
    endloop
  endfacet
  facet normal 9.960050e-002 1.422443e-001 -9.848078e-001
    outer loop
      vertex   -2.903466e+001 -2.347412e+002 8.522792e+001
      vertex   -2.925761e+001 -2.346229e+002 8.522247e+001
      vertex   -2.765788e+001 -2.354344e+002 8.526704e+001
    endloop
  endfacet
endsolid
