solid ascii
  facet normal 8.937066e-001 4.486518e-001 -1.326587e-004
    outer loop
      vertex   -3.997201e+000 -2.354428e+002 8.514572e+001
      vertex   -6.444269e+000 -2.305680e+002 8.609824e+001
      vertex   -3.996906e+000 -2.354427e+002 8.760000e+001
    endloop
  endfacet
  facet normal 8.937066e-001 4.486518e-001 -1.326587e-004
    outer loop
      vertex   -3.996906e+000 -2.354427e+002 8.760000e+001
      vertex   -6.444269e+000 -2.305680e+002 8.609824e+001
      vertex   -6.444092e+000 -2.305679e+002 8.760000e+001
    endloop
  endfacet
  facet normal 6.219753e-002 -9.980511e-001 -5.038174e-003
    outer loop
      vertex   -1.221936e+001 -2.379153e+002 8.519758e+001
      vertex   -1.225976e+001 -2.379184e+002 8.529798e+001
      vertex   -1.262733e+001 -2.379409e+002 8.521638e+001
    endloop
  endfacet
  facet normal 8.541456e-002 -9.963360e-001 4.355916e-003
    outer loop
      vertex   -1.221936e+001 -2.379153e+002 8.519758e+001
      vertex   -1.189085e+001 -2.378867e+002 8.529798e+001
      vertex   -1.225976e+001 -2.379184e+002 8.529798e+001
    endloop
  endfacet
  facet normal 8.902462e-002 -9.960008e-001 -7.551509e-003
    outer loop
      vertex   -1.221936e+001 -2.379153e+002 8.519758e+001
      vertex   -1.181060e+001 -2.378787e+002 8.518060e+001
      vertex   -1.189085e+001 -2.378867e+002 8.529798e+001
    endloop
  endfacet
  facet normal 1.091206e-001 -9.940084e-001 6.324596e-003
    outer loop
      vertex   -1.189085e+001 -2.378867e+002 8.529798e+001
      vertex   -1.181060e+001 -2.378787e+002 8.518060e+001
      vertex   -1.152305e+001 -2.378464e+002 8.529798e+001
    endloop
  endfacet
  facet normal 1.091228e-001 -9.940283e-001 0.000000e+000
    outer loop
      vertex   -1.189085e+001 -2.378867e+002 8.644899e+001
      vertex   -1.152305e+001 -2.378464e+002 8.529798e+001
      vertex   -1.152305e+001 -2.378464e+002 8.644899e+001
    endloop
  endfacet
  facet normal 1.320775e-001 -9.912394e-001 -2.195906e-006
    outer loop
      vertex   -1.152283e+001 -2.378463e+002 8.760000e+001
      vertex   -1.152305e+001 -2.378464e+002 8.644899e+001
      vertex   -1.115633e+001 -2.377975e+002 8.644899e+001
    endloop
  endfacet
  facet normal 1.542480e-001 -9.880318e-001 -8.855971e-004
    outer loop
      vertex   -1.097317e+001 -2.377699e+002 8.760000e+001
      vertex   -1.115633e+001 -2.377975e+002 8.644899e+001
      vertex   -1.079066e+001 -2.377404e+002 8.644899e+001
    endloop
  endfacet
  facet normal 1.756099e-001 -9.844598e-001 1.627369e-006
    outer loop
      vertex   -1.042582e+001 -2.376753e+002 8.760000e+001
      vertex   -1.079066e+001 -2.377404e+002 8.644899e+001
      vertex   -1.042599e+001 -2.376754e+002 8.644899e+001
    endloop
  endfacet
  facet normal 1.961445e-001 -9.805750e-001 0.000000e+000
    outer loop
      vertex   -1.006230e+001 -2.376026e+002 8.644899e+001
      vertex   -1.042599e+001 -2.376754e+002 8.644899e+001
      vertex   -1.006230e+001 -2.376026e+002 8.529798e+001
    endloop
  endfacet
  facet normal 2.158365e-001 -9.764157e-001 5.201096e-003
    outer loop
      vertex   -9.699561e+000 -2.375224e+002 8.529798e+001
      vertex   -1.006230e+001 -2.376026e+002 8.529798e+001
      vertex   -9.861913e+000 -2.375592e+002 8.512379e+001
    endloop
  endfacet
  facet normal 2.230707e-001 -9.748004e-001 -1.882443e-003
    outer loop
      vertex   -9.624817e+000 -2.375050e+002 8.511944e+001
      vertex   -9.699561e+000 -2.375224e+002 8.529798e+001
      vertex   -9.861913e+000 -2.375592e+002 8.512379e+001
    endloop
  endfacet
  facet normal 2.346864e-001 -9.720657e-001 3.247605e-003
    outer loop
      vertex   -9.624817e+000 -2.375050e+002 8.511944e+001
      vertex   -9.337728e+000 -2.374351e+002 8.529798e+001
      vertex   -9.699561e+000 -2.375224e+002 8.529798e+001
    endloop
  endfacet
  facet normal 2.355064e-001 -9.718710e-001 1.852872e-003
    outer loop
      vertex   -9.624817e+000 -2.375050e+002 8.511944e+001
      vertex   -9.381868e+000 -2.374461e+002 8.511554e+001
      vertex   -9.337728e+000 -2.374351e+002 8.529798e+001
    endloop
  endfacet
  facet normal 2.477824e-001 -9.688148e-001 -1.302172e-003
    outer loop
      vertex   -9.337728e+000 -2.374351e+002 8.529798e+001
      vertex   -9.381868e+000 -2.374461e+002 8.511554e+001
      vertex   -9.132609e+000 -2.373824e+002 8.511210e+001
    endloop
  endfacet
  facet normal 2.600348e-001 -9.655969e-001 -2.127955e-003
    outer loop
      vertex   -8.976772e+000 -2.373408e+002 8.529798e+001
      vertex   -9.132609e+000 -2.373824e+002 8.511210e+001
      vertex   -8.876592e+000 -2.373134e+002 8.510914e+001
    endloop
  endfacet
  facet normal 2.722428e-001 -9.622286e-001 -1.105836e-004
    outer loop
      vertex   -8.616661e+000 -2.372399e+002 8.529798e+001
      vertex   -8.876592e+000 -2.373134e+002 8.510914e+001
      vertex   -8.613382e+000 -2.372389e+002 8.510670e+001
    endloop
  endfacet
  facet normal 2.843418e-001 -9.587230e-001 1.142232e-004
    outer loop
      vertex   -8.342551e+000 -2.371586e+002 8.510480e+001
      vertex   -8.616661e+000 -2.372399e+002 8.529798e+001
      vertex   -8.613382e+000 -2.372389e+002 8.510670e+001
    endloop
  endfacet
  facet normal 2.861463e-001 -9.581816e-001 2.902470e-003
    outer loop
      vertex   -8.342551e+000 -2.371586e+002 8.510480e+001
      vertex   -8.257359e+000 -2.371326e+002 8.529798e+001
      vertex   -8.616661e+000 -2.372399e+002 8.529798e+001
    endloop
  endfacet
  facet normal 2.963229e-001 -9.550857e-001 -2.002462e-003
    outer loop
      vertex   -8.342551e+000 -2.371586e+002 8.510480e+001
      vertex   -8.063683e+000 -2.370721e+002 8.510349e+001
      vertex   -8.257359e+000 -2.371326e+002 8.529798e+001
    endloop
  endfacet
  facet normal 3.016211e-001 -9.534203e-001 3.791443e-003
    outer loop
      vertex   -8.257359e+000 -2.371326e+002 8.529798e+001
      vertex   -8.063683e+000 -2.370721e+002 8.510349e+001
      vertex   -7.898835e+000 -2.370192e+002 8.529798e+001
    endloop
  endfacet
  facet normal 3.016233e-001 -9.534272e-001 0.000000e+000
    outer loop
      vertex   -8.257359e+000 -2.371326e+002 8.644899e+001
      vertex   -7.898835e+000 -2.370192e+002 8.529798e+001
      vertex   -7.898835e+000 -2.370192e+002 8.644899e+001
    endloop
  endfacet
  facet normal 3.053317e-001 -9.522452e-001 1.270687e-003
    outer loop
      vertex   -8.257274e+000 -2.371326e+002 8.760000e+001
      vertex   -7.898835e+000 -2.370192e+002 8.644899e+001
      vertex   -7.719791e+000 -2.369602e+002 8.760000e+001
    endloop
  endfacet
  facet normal 3.016233e-001 -9.534272e-001 -6.191537e-007
    outer loop
      vertex   -8.257274e+000 -2.371326e+002 8.760000e+001
      vertex   -8.257359e+000 -2.371326e+002 8.644899e+001
      vertex   -7.898835e+000 -2.370192e+002 8.644899e+001
    endloop
  endfacet
  facet normal 2.861475e-001 -9.581856e-001 6.392331e-007
    outer loop
      vertex   -8.257274e+000 -2.371326e+002 8.760000e+001
      vertex   -8.616661e+000 -2.372399e+002 8.644899e+001
      vertex   -8.257359e+000 -2.371326e+002 8.644899e+001
    endloop
  endfacet
  facet normal 2.821178e-001 -9.593788e-001 1.370103e-003
    outer loop
      vertex   -8.257274e+000 -2.371326e+002 8.760000e+001
      vertex   -8.796506e+000 -2.372911e+002 8.760000e+001
      vertex   -8.616661e+000 -2.372399e+002 8.644899e+001
    endloop
  endfacet
  facet normal 2.698380e-001 -9.629055e-001 -7.056301e-004
    outer loop
      vertex   -8.616661e+000 -2.372399e+002 8.644899e+001
      vertex   -8.796506e+000 -2.372911e+002 8.760000e+001
      vertex   -8.976772e+000 -2.373408e+002 8.644899e+001
    endloop
  endfacet
  facet normal 2.698381e-001 -9.629057e-001 0.000000e+000
    outer loop
      vertex   -8.616661e+000 -2.372399e+002 8.529798e+001
      vertex   -8.976772e+000 -2.373408e+002 8.644899e+001
      vertex   -8.976772e+000 -2.373408e+002 8.529798e+001
    endloop
  endfacet
  facet normal 2.698364e-001 -9.628999e-001 3.463007e-003
    outer loop
      vertex   -8.876592e+000 -2.373134e+002 8.510914e+001
      vertex   -8.616661e+000 -2.372399e+002 8.529798e+001
      vertex   -8.976772e+000 -2.373408e+002 8.529798e+001
    endloop
  endfacet
  facet normal 1.152889e-001 -9.932914e-001 -8.982386e-003
    outer loop
      vertex   -1.181060e+001 -2.378787e+002 8.518060e+001
      vertex   -1.139741e+001 -2.378306e+002 8.516527e+001
      vertex   -1.152305e+001 -2.378464e+002 8.529798e+001
    endloop
  endfacet
  facet normal 1.320741e-001 -9.912140e-001 7.155659e-003
    outer loop
      vertex   -1.152305e+001 -2.378464e+002 8.529798e+001
      vertex   -1.139741e+001 -2.378306e+002 8.516527e+001
      vertex   -1.115633e+001 -2.377975e+002 8.529798e+001
    endloop
  endfacet
  facet normal 1.320775e-001 -9.912394e-001 0.000000e+000
    outer loop
      vertex   -1.152305e+001 -2.378464e+002 8.644899e+001
      vertex   -1.115633e+001 -2.377975e+002 8.529798e+001
      vertex   -1.115633e+001 -2.377975e+002 8.644899e+001
    endloop
  endfacet
  facet normal 1.320775e-001 -9.912394e-001 0.000000e+000
    outer loop
      vertex   -1.152305e+001 -2.378464e+002 8.644899e+001
      vertex   -1.152305e+001 -2.378464e+002 8.529798e+001
      vertex   -1.115633e+001 -2.377975e+002 8.529798e+001
    endloop
  endfacet
  facet normal 1.411069e-001 -9.899481e-001 -9.568545e-003
    outer loop
      vertex   -1.139741e+001 -2.378306e+002 8.516527e+001
      vertex   -1.097607e+001 -2.377704e+002 8.515151e+001
      vertex   -1.115633e+001 -2.377975e+002 8.529798e+001
    endloop
  endfacet
  facet normal 1.542444e-001 -9.880082e-001 6.957847e-003
    outer loop
      vertex   -1.115633e+001 -2.377975e+002 8.529798e+001
      vertex   -1.097607e+001 -2.377704e+002 8.515151e+001
      vertex   -1.079066e+001 -2.377404e+002 8.529798e+001
    endloop
  endfacet
  facet normal 1.542481e-001 -9.880321e-001 0.000000e+000
    outer loop
      vertex   -1.115633e+001 -2.377975e+002 8.644899e+001
      vertex   -1.079066e+001 -2.377404e+002 8.529798e+001
      vertex   -1.079066e+001 -2.377404e+002 8.644899e+001
    endloop
  endfacet
  facet normal 1.542481e-001 -9.880321e-001 0.000000e+000
    outer loop
      vertex   -1.115633e+001 -2.377975e+002 8.644899e+001
      vertex   -1.115633e+001 -2.377975e+002 8.529798e+001
      vertex   -1.079066e+001 -2.377404e+002 8.529798e+001
    endloop
  endfacet
  facet normal 1.665977e-001 -9.859830e-001 -9.093844e-003
    outer loop
      vertex   -1.097607e+001 -2.377704e+002 8.515151e+001
      vertex   -1.054276e+001 -2.376971e+002 8.513926e+001
      vertex   -1.079066e+001 -2.377404e+002 8.529798e+001
    endloop
  endfacet
  facet normal 1.756073e-001 -9.844455e-001 5.397064e-003
    outer loop
      vertex   -1.079066e+001 -2.377404e+002 8.529798e+001
      vertex   -1.054276e+001 -2.376971e+002 8.513926e+001
      vertex   -1.042599e+001 -2.376754e+002 8.529798e+001
    endloop
  endfacet
  facet normal 1.756099e-001 -9.844598e-001 0.000000e+000
    outer loop
      vertex   -1.079066e+001 -2.377404e+002 8.644899e+001
      vertex   -1.042599e+001 -2.376754e+002 8.529798e+001
      vertex   -1.042599e+001 -2.376754e+002 8.644899e+001
    endloop
  endfacet
  facet normal 1.756099e-001 -9.844598e-001 0.000000e+000
    outer loop
      vertex   -1.079066e+001 -2.377404e+002 8.644899e+001
      vertex   -1.079066e+001 -2.377404e+002 8.529798e+001
      vertex   -1.042599e+001 -2.376754e+002 8.529798e+001
    endloop
  endfacet
  facet normal 1.856327e-001 -9.826167e-001 -2.228215e-003
    outer loop
      vertex   -1.054276e+001 -2.376971e+002 8.513926e+001
      vertex   -1.032041e+001 -2.376550e+002 8.513371e+001
      vertex   -1.042599e+001 -2.376754e+002 8.529798e+001
    endloop
  endfacet
  facet normal 1.961423e-001 -9.805638e-001 4.780189e-003
    outer loop
      vertex   -1.042599e+001 -2.376754e+002 8.529798e+001
      vertex   -1.032041e+001 -2.376550e+002 8.513371e+001
      vertex   -1.006230e+001 -2.376026e+002 8.529798e+001
    endloop
  endfacet
  facet normal 1.961445e-001 -9.805750e-001 0.000000e+000
    outer loop
      vertex   -1.042599e+001 -2.376754e+002 8.644899e+001
      vertex   -1.042599e+001 -2.376754e+002 8.529798e+001
      vertex   -1.006230e+001 -2.376026e+002 8.529798e+001
    endloop
  endfacet
  facet normal 1.982376e-001 -9.801531e-001 1.357067e-003
    outer loop
      vertex   -1.032041e+001 -2.376550e+002 8.513371e+001
      vertex   -1.009362e+001 -2.376092e+002 8.512854e+001
      vertex   -1.006230e+001 -2.376026e+002 8.529798e+001
    endloop
  endfacet
  facet normal 2.106594e-001 -9.775590e-001 -1.039188e-003
    outer loop
      vertex   -1.006230e+001 -2.376026e+002 8.529798e+001
      vertex   -1.009362e+001 -2.376092e+002 8.512854e+001
      vertex   -9.861913e+000 -2.375592e+002 8.512379e+001
    endloop
  endfacet
  facet normal 2.526840e-001 -9.675385e-001 4.468584e-003
    outer loop
      vertex   -9.337728e+000 -2.374351e+002 8.529798e+001
      vertex   -9.132609e+000 -2.373824e+002 8.511210e+001
      vertex   -8.976772e+000 -2.373408e+002 8.529798e+001
    endloop
  endfacet
  facet normal 2.526866e-001 -9.675482e-001 0.000000e+000
    outer loop
      vertex   -9.337728e+000 -2.374351e+002 8.644899e+001
      vertex   -8.976772e+000 -2.373408e+002 8.529798e+001
      vertex   -8.976772e+000 -2.373408e+002 8.644899e+001
    endloop
  endfacet
  facet normal 2.570238e-001 -9.664040e-001 1.452272e-003
    outer loop
      vertex   -9.337599e+000 -2.374350e+002 8.760000e+001
      vertex   -8.976772e+000 -2.373408e+002 8.644899e+001
      vertex   -8.796506e+000 -2.372911e+002 8.760000e+001
    endloop
  endfacet
  facet normal 2.526866e-001 -9.675482e-001 -1.060114e-006
    outer loop
      vertex   -9.337599e+000 -2.374350e+002 8.760000e+001
      vertex   -9.337728e+000 -2.374351e+002 8.644899e+001
      vertex   -8.976772e+000 -2.373408e+002 8.644899e+001
    endloop
  endfacet
  facet normal 2.346876e-001 -9.720708e-001 1.090556e-006
    outer loop
      vertex   -9.337599e+000 -2.374350e+002 8.760000e+001
      vertex   -9.699561e+000 -2.375224e+002 8.644899e+001
      vertex   -9.337728e+000 -2.374351e+002 8.644899e+001
    endloop
  endfacet
  facet normal 2.300262e-001 -9.731832e-001 1.551430e-003
    outer loop
      vertex   -9.337599e+000 -2.374350e+002 8.760000e+001
      vertex   -9.880665e+000 -2.375634e+002 8.760000e+001
      vertex   -9.699561e+000 -2.375224e+002 8.644899e+001
    endloop
  endfacet
  facet normal 2.158394e-001 -9.764286e-001 -7.963100e-004
    outer loop
      vertex   -9.699561e+000 -2.375224e+002 8.644899e+001
      vertex   -9.880665e+000 -2.375634e+002 8.760000e+001
      vertex   -1.006230e+001 -2.376026e+002 8.644899e+001
    endloop
  endfacet
  facet normal 2.158395e-001 -9.764289e-001 0.000000e+000
    outer loop
      vertex   -9.699561e+000 -2.375224e+002 8.529798e+001
      vertex   -1.006230e+001 -2.376026e+002 8.644899e+001
      vertex   -1.006230e+001 -2.376026e+002 8.529798e+001
    endloop
  endfacet
  facet normal 2.158395e-001 -9.764289e-001 0.000000e+000
    outer loop
      vertex   -9.699561e+000 -2.375224e+002 8.529798e+001
      vertex   -9.699561e+000 -2.375224e+002 8.644899e+001
      vertex   -1.006230e+001 -2.376026e+002 8.644899e+001
    endloop
  endfacet
  facet normal 2.346876e-001 -9.720708e-001 0.000000e+000
    outer loop
      vertex   -9.699561e+000 -2.375224e+002 8.529798e+001
      vertex   -9.337728e+000 -2.374351e+002 8.529798e+001
      vertex   -9.699561e+000 -2.375224e+002 8.644899e+001
    endloop
  endfacet
  facet normal 2.346876e-001 -9.720708e-001 0.000000e+000
    outer loop
      vertex   -9.699561e+000 -2.375224e+002 8.644899e+001
      vertex   -9.337728e+000 -2.374351e+002 8.529798e+001
      vertex   -9.337728e+000 -2.374351e+002 8.644899e+001
    endloop
  endfacet
  facet normal 2.526866e-001 -9.675482e-001 0.000000e+000
    outer loop
      vertex   -9.337728e+000 -2.374351e+002 8.644899e+001
      vertex   -9.337728e+000 -2.374351e+002 8.529798e+001
      vertex   -8.976772e+000 -2.373408e+002 8.529798e+001
    endloop
  endfacet
  facet normal 3.081898e-001 -9.513220e-001 -2.346925e-003
    outer loop
      vertex   -8.063683e+000 -2.370721e+002 8.510349e+001
      vertex   -7.776371e+000 -2.369790e+002 8.510279e+001
      vertex   -7.898835e+000 -2.370192e+002 8.529798e+001
    endloop
  endfacet
  facet normal 3.162747e-001 -9.486620e-001 3.272840e-003
    outer loop
      vertex   -7.898835e+000 -2.370192e+002 8.529798e+001
      vertex   -7.776371e+000 -2.369790e+002 8.510279e+001
      vertex   -7.541055e+000 -2.368999e+002 8.529798e+001
    endloop
  endfacet
  facet normal 3.162764e-001 -9.486671e-001 0.000000e+000
    outer loop
      vertex   -7.898835e+000 -2.370192e+002 8.644899e+001
      vertex   -7.541055e+000 -2.368999e+002 8.529798e+001
      vertex   -7.541055e+000 -2.368999e+002 8.644899e+001
    endloop
  endfacet
  facet normal 3.267021e-001 -9.451266e-001 1.189507e-003
    outer loop
      vertex   -7.719791e+000 -2.369602e+002 8.760000e+001
      vertex   -7.541055e+000 -2.368999e+002 8.644899e+001
      vertex   -7.183943e+000 -2.367750e+002 8.760000e+001
    endloop
  endfacet
  facet normal 3.162763e-001 -9.486669e-001 -6.150500e-004
    outer loop
      vertex   -7.719791e+000 -2.369602e+002 8.760000e+001
      vertex   -7.898835e+000 -2.370192e+002 8.644899e+001
      vertex   -7.541055e+000 -2.368999e+002 8.644899e+001
    endloop
  endfacet
  facet normal 3.199069e-001 -9.474476e-001 -1.598303e-003
    outer loop
      vertex   -7.776371e+000 -2.369790e+002 8.510279e+001
      vertex   -7.480218e+000 -2.368790e+002 8.510275e+001
      vertex   -7.541055e+000 -2.368999e+002 8.529798e+001
    endloop
  endfacet
  facet normal 3.314344e-001 -9.434752e-001 2.418532e-003
    outer loop
      vertex   -7.541055e+000 -2.368999e+002 8.529798e+001
      vertex   -7.480218e+000 -2.368790e+002 8.510275e+001
      vertex   -7.174832e+000 -2.367717e+002 8.510341e+001
    endloop
  endfacet
  facet normal 3.366613e-001 -9.416238e-001 1.948648e-003
    outer loop
      vertex   -7.541055e+000 -2.368999e+002 8.644899e+001
      vertex   -7.174832e+000 -2.367717e+002 8.510341e+001
      vertex   -6.827593e+000 -2.366448e+002 8.644899e+001
    endloop
  endfacet
  facet normal 3.462754e-001 -9.381323e-001 1.090907e-003
    outer loop
      vertex   -7.183943e+000 -2.367750e+002 8.760000e+001
      vertex   -6.827593e+000 -2.366448e+002 8.644899e+001
      vertex   -6.649619e+000 -2.365778e+002 8.760000e+001
    endloop
  endfacet
  facet normal 3.366611e-001 -9.416231e-001 -2.280524e-003
    outer loop
      vertex   -7.183943e+000 -2.367750e+002 8.760000e+001
      vertex   -7.541055e+000 -2.368999e+002 8.644899e+001
      vertex   -6.827593e+000 -2.366448e+002 8.644899e+001
    endloop
  endfacet
  facet normal 3.433317e-001 -9.392142e-001 0.000000e+000
    outer loop
      vertex   -6.827593e+000 -2.366448e+002 8.644899e+001
      vertex   -7.174832e+000 -2.367717e+002 8.510341e+001
      vertex   -6.827593e+000 -2.366448e+002 8.529798e+001
    endloop
  endfacet
  facet normal 3.534586e-001 -9.354497e-001 -8.854953e-004
    outer loop
      vertex   -6.557696e+000 -2.365426e+002 8.510678e+001
      vertex   -6.827593e+000 -2.366448e+002 8.529798e+001
      vertex   -6.860248e+000 -2.366569e+002 8.510479e+001
    endloop
  endfacet
  facet normal 3.540075e-001 -9.352426e-001 0.000000e+000
    outer loop
      vertex   -6.557696e+000 -2.365426e+002 8.510678e+001
      vertex   -6.827593e+000 -2.366448e+002 8.644899e+001
      vertex   -6.827593e+000 -2.366448e+002 8.529798e+001
    endloop
  endfacet
  facet normal 3.612129e-001 -9.324819e-001 1.659021e-003
    outer loop
      vertex   -6.557696e+000 -2.365426e+002 8.510678e+001
      vertex   -6.116206e+000 -2.363692e+002 8.644899e+001
      vertex   -6.827593e+000 -2.366448e+002 8.644899e+001
    endloop
  endfacet
  facet normal 3.631791e-001 -9.317189e-001 9.137052e-004
    outer loop
      vertex   -6.557696e+000 -2.365426e+002 8.510678e+001
      vertex   -6.268498e+000 -2.364299e+002 8.510926e+001
      vertex   -6.116206e+000 -2.363692e+002 8.644899e+001
    endloop
  endfacet
  facet normal 3.701264e-001 -9.289814e-001 0.000000e+000
    outer loop
      vertex   -6.116206e+000 -2.363692e+002 8.644899e+001
      vertex   -6.268498e+000 -2.364299e+002 8.510926e+001
      vertex   -6.116206e+000 -2.363692e+002 8.529798e+001
    endloop
  endfacet
  facet normal 3.787575e-001 -9.254887e-001 3.664292e-003
    outer loop
      vertex   -5.827389e+000 -2.362518e+002 8.511408e+001
      vertex   -6.116206e+000 -2.363692e+002 8.529798e+001
      vertex   -5.977846e+000 -2.363133e+002 8.511230e+001
    endloop
  endfacet
  facet normal 3.767588e-001 -9.263114e-001 0.000000e+000
    outer loop
      vertex   -5.827389e+000 -2.362518e+002 8.511408e+001
      vertex   -6.116206e+000 -2.363692e+002 8.644899e+001
      vertex   -6.116206e+000 -2.363692e+002 8.529798e+001
    endloop
  endfacet
  facet normal 3.827518e-001 -9.238500e-001 1.513232e-003
    outer loop
      vertex   -5.827389e+000 -2.362518e+002 8.511408e+001
      vertex   -5.407130e+000 -2.360755e+002 8.644899e+001
      vertex   -6.116206e+000 -2.363692e+002 8.644899e+001
    endloop
  endfacet
  facet normal 3.831791e-001 -9.236731e-001 1.355365e-003
    outer loop
      vertex   -5.827389e+000 -2.362518e+002 8.511408e+001
      vertex   -5.671085e+000 -2.361869e+002 8.511607e+001
      vertex   -5.407130e+000 -2.360755e+002 8.644899e+001
    endloop
  endfacet
  facet normal 3.889958e-001 -9.212395e-001 0.000000e+000
    outer loop
      vertex   -5.407130e+000 -2.360755e+002 8.644899e+001
      vertex   -5.671085e+000 -2.361869e+002 8.511607e+001
      vertex   -5.407130e+000 -2.360755e+002 8.529798e+001
    endloop
  endfacet
  facet normal 3.967928e-001 -9.179068e-001 1.618634e-003
    outer loop
      vertex   -5.149124e+000 -2.359642e+002 8.512375e+001
      vertex   -5.407130e+000 -2.360755e+002 8.529798e+001
      vertex   -5.333733e+000 -2.360440e+002 8.512086e+001
    endloop
  endfacet
  facet normal 3.958717e-001 -9.183058e-001 0.000000e+000
    outer loop
      vertex   -5.149124e+000 -2.359642e+002 8.512375e+001
      vertex   -5.407130e+000 -2.360755e+002 8.644899e+001
      vertex   -5.407130e+000 -2.360755e+002 8.529798e+001
    endloop
  endfacet
  facet normal 4.015542e-001 -9.158343e-001 1.313718e-003
    outer loop
      vertex   -5.149124e+000 -2.359642e+002 8.512375e+001
      vertex   -4.951550e+000 -2.358776e+002 8.512705e+001
      vertex   -5.407130e+000 -2.360755e+002 8.644899e+001
    endloop
  endfacet
  facet normal 4.014052e-001 -9.158997e-001 1.252582e-003
    outer loop
      vertex   -5.407130e+000 -2.360755e+002 8.644899e+001
      vertex   -4.951550e+000 -2.358776e+002 8.512705e+001
      vertex   -4.700098e+000 -2.357656e+002 8.644899e+001
    endloop
  endfacet
  facet normal 4.076936e-001 -9.131185e-001 7.378725e-004
    outer loop
      vertex   -5.054660e+000 -2.359230e+002 8.760000e+001
      vertex   -4.700098e+000 -2.357656e+002 8.644899e+001
      vertex   -4.525303e+000 -2.356866e+002 8.760000e+001
    endloop
  endfacet
  facet normal 4.014050e-001 -9.158993e-001 -1.579544e-003
    outer loop
      vertex   -5.054660e+000 -2.359230e+002 8.760000e+001
      vertex   -5.407130e+000 -2.360755e+002 8.644899e+001
      vertex   -4.700098e+000 -2.357656e+002 8.644899e+001
    endloop
  endfacet
  facet normal 3.947562e-001 -9.187855e-001 8.388527e-004
    outer loop
      vertex   -5.054660e+000 -2.359230e+002 8.760000e+001
      vertex   -5.585090e+000 -2.361509e+002 8.760000e+001
      vertex   -5.407130e+000 -2.360755e+002 8.644899e+001
    endloop
  endfacet
  facet normal 3.827519e-001 -9.238502e-001 -1.348983e-003
    outer loop
      vertex   -5.407130e+000 -2.360755e+002 8.644899e+001
      vertex   -5.585090e+000 -2.361509e+002 8.760000e+001
      vertex   -6.116206e+000 -2.363692e+002 8.644899e+001
    endloop
  endfacet
  facet normal 3.802456e-001 -9.248855e-001 3.935225e-006
    outer loop
      vertex   -6.116206e+000 -2.363692e+002 8.644899e+001
      vertex   -5.585090e+000 -2.361509e+002 8.760000e+001
      vertex   -6.116706e+000 -2.363694e+002 8.760000e+001
    endloop
  endfacet
  facet normal 3.641045e-001 -9.313581e-001 -4.196416e-006
    outer loop
      vertex   -6.649619e+000 -2.365778e+002 8.760000e+001
      vertex   -6.116206e+000 -2.363692e+002 8.644899e+001
      vertex   -6.116706e+000 -2.363694e+002 8.760000e+001
    endloop
  endfacet
  facet normal 3.612130e-001 -9.324820e-001 -1.547862e-003
    outer loop
      vertex   -6.649619e+000 -2.365778e+002 8.760000e+001
      vertex   -6.827593e+000 -2.366448e+002 8.644899e+001
      vertex   -6.116206e+000 -2.363692e+002 8.644899e+001
    endloop
  endfacet
  facet normal 3.427508e-001 -9.394256e-001 1.174612e-003
    outer loop
      vertex   -7.174832e+000 -2.367717e+002 8.510341e+001
      vertex   -6.860248e+000 -2.366569e+002 8.510479e+001
      vertex   -6.827593e+000 -2.366448e+002 8.529798e+001
    endloop
  endfacet
  facet normal 3.722458e-001 -9.281321e-001 -1.983301e-003
    outer loop
      vertex   -6.268498e+000 -2.364299e+002 8.510926e+001
      vertex   -5.977846e+000 -2.363133e+002 8.511230e+001
      vertex   -6.116206e+000 -2.363692e+002 8.529798e+001
    endloop
  endfacet
  facet normal 3.876152e-001 -9.218183e-001 2.357856e-003
    outer loop
      vertex   -5.671085e+000 -2.361869e+002 8.511607e+001
      vertex   -5.507129e+000 -2.361180e+002 8.511832e+001
      vertex   -5.407130e+000 -2.360755e+002 8.529798e+001
    endloop
  endfacet
  facet normal 3.921842e-001 -9.198865e-001 -6.422135e-004
    outer loop
      vertex   -5.407130e+000 -2.360755e+002 8.529798e+001
      vertex   -5.507129e+000 -2.361180e+002 8.511832e+001
      vertex   -5.333733e+000 -2.360440e+002 8.512086e+001
    endloop
  endfacet
  facet normal 4.069076e-001 -9.134693e-001 0.000000e+000
    outer loop
      vertex   -4.700098e+000 -2.357656e+002 8.644899e+001
      vertex   -4.951550e+000 -2.358776e+002 8.512705e+001
      vertex   -4.700098e+000 -2.357656e+002 8.529798e+001
    endloop
  endfacet
  facet normal 4.118841e-001 -9.112362e-001 -1.382340e-005
    outer loop
      vertex   -4.525303e+000 -2.356866e+002 8.760000e+001
      vertex   -4.700098e+000 -2.357656e+002 8.529798e+001
      vertex   -4.510588e+000 -2.356799e+002 8.513514e+001
    endloop
  endfacet
  facet normal 4.165647e-001 -9.091061e-001 1.990009e-005
    outer loop
      vertex   -4.263790e+000 -2.355668e+002 8.514008e+001
      vertex   -4.525303e+000 -2.356866e+002 8.760000e+001
      vertex   -4.510588e+000 -2.356799e+002 8.513514e+001
    endloop
  endfacet
  facet normal 4.191118e-001 -9.079346e-001 3.477268e-004
    outer loop
      vertex   -4.263790e+000 -2.355668e+002 8.514008e+001
      vertex   -3.996906e+000 -2.354427e+002 8.760000e+001
      vertex   -4.525303e+000 -2.356866e+002 8.760000e+001
    endloop
  endfacet
  facet normal 4.204153e-001 -9.073318e-001 1.758890e-004
    outer loop
      vertex   -4.263790e+000 -2.355668e+002 8.514008e+001
      vertex   -4.133074e+000 -2.355063e+002 8.514280e+001
      vertex   -3.996906e+000 -2.354427e+002 8.760000e+001
    endloop
  endfacet
  facet normal 4.230204e-001 -9.061201e-001 1.764889e-007
    outer loop
      vertex   -3.996906e+000 -2.354427e+002 8.760000e+001
      vertex   -4.133074e+000 -2.355063e+002 8.514280e+001
      vertex   -3.997201e+000 -2.354428e+002 8.514572e+001
    endloop
  endfacet
  facet normal 4.064437e-001 -9.136754e-001 8.174995e-004
    outer loop
      vertex   -4.951550e+000 -2.358776e+002 8.512705e+001
      vertex   -4.739276e+000 -2.357832e+002 8.513083e+001
      vertex   -4.700098e+000 -2.357656e+002 8.529798e+001
    endloop
  endfacet
  facet normal 4.114680e-001 -9.114240e-001 -5.968174e-004
    outer loop
      vertex   -4.700098e+000 -2.357656e+002 8.529798e+001
      vertex   -4.739276e+000 -2.357832e+002 8.513083e+001
      vertex   -4.510588e+000 -2.356799e+002 8.513514e+001
    endloop
  endfacet
  facet normal 4.117329e-001 -9.113046e-001 0.000000e+000
    outer loop
      vertex   -4.700098e+000 -2.357656e+002 8.529798e+001
      vertex   -4.525303e+000 -2.356866e+002 8.760000e+001
      vertex   -4.700098e+000 -2.357656e+002 8.644899e+001
    endloop
  endfacet
  facet normal 2.011196e-001 -9.795653e-001 1.633462e-003
    outer loop
      vertex   -9.880665e+000 -2.375634e+002 8.760000e+001
      vertex   -1.042582e+001 -2.376753e+002 8.760000e+001
      vertex   -1.006230e+001 -2.376026e+002 8.644899e+001
    endloop
  endfacet
  facet normal 1.961445e-001 -9.805750e-001 -1.587210e-006
    outer loop
      vertex   -1.006230e+001 -2.376026e+002 8.644899e+001
      vertex   -1.042582e+001 -2.376753e+002 8.760000e+001
      vertex   -1.042599e+001 -2.376754e+002 8.644899e+001
    endloop
  endfacet
  facet normal 1.703202e-001 -9.853873e-001 1.730763e-003
    outer loop
      vertex   -1.042582e+001 -2.376753e+002 8.760000e+001
      vertex   -1.097317e+001 -2.377699e+002 8.760000e+001
      vertex   -1.079066e+001 -2.377404e+002 8.644899e+001
    endloop
  endfacet
  facet normal 1.376703e-001 -9.904765e-001 1.811009e-003
    outer loop
      vertex   -1.097317e+001 -2.377699e+002 8.760000e+001
      vertex   -1.152283e+001 -2.378463e+002 8.760000e+001
      vertex   -1.115633e+001 -2.377975e+002 8.644899e+001
    endloop
  endfacet
  facet normal 1.091228e-001 -9.940283e-001 2.244117e-006
    outer loop
      vertex   -1.152305e+001 -2.378464e+002 8.644899e+001
      vertex   -1.152283e+001 -2.378463e+002 8.760000e+001
      vertex   -1.189085e+001 -2.378867e+002 8.644899e+001
    endloop
  endfacet
  facet normal 1.032426e-001 -9.946544e-001 1.904317e-003
    outer loop
      vertex   -1.189085e+001 -2.378867e+002 8.644899e+001
      vertex   -1.152283e+001 -2.378463e+002 8.760000e+001
      vertex   -1.207492e+001 -2.379036e+002 8.760000e+001
    endloop
  endfacet
  facet normal 6.715063e-002 -9.977409e-001 1.979469e-003
    outer loop
      vertex   -1.225976e+001 -2.379184e+002 8.644899e+001
      vertex   -1.207492e+001 -2.379036e+002 8.760000e+001
      vertex   -1.262955e+001 -2.379410e+002 8.760000e+001
    endloop
  endfacet
  facet normal 6.104745e-002 -9.981349e-001 1.095345e-005
    outer loop
      vertex   -1.262733e+001 -2.379409e+002 8.521638e+001
      vertex   -1.225976e+001 -2.379184e+002 8.644899e+001
      vertex   -1.262955e+001 -2.379410e+002 8.760000e+001
    endloop
  endfacet
  facet normal 6.108405e-002 -9.981326e-001 0.000000e+000
    outer loop
      vertex   -1.262733e+001 -2.379409e+002 8.521638e+001
      vertex   -1.225976e+001 -2.379184e+002 8.529798e+001
      vertex   -1.225976e+001 -2.379184e+002 8.644899e+001
    endloop
  endfacet
  facet normal 8.541537e-002 -9.963454e-001 0.000000e+000
    outer loop
      vertex   -1.225976e+001 -2.379184e+002 8.644899e+001
      vertex   -1.225976e+001 -2.379184e+002 8.529798e+001
      vertex   -1.189085e+001 -2.378867e+002 8.529798e+001
    endloop
  endfacet
  facet normal 1.091228e-001 -9.940283e-001 0.000000e+000
    outer loop
      vertex   -1.189085e+001 -2.378867e+002 8.644899e+001
      vertex   -1.189085e+001 -2.378867e+002 8.529798e+001
      vertex   -1.152305e+001 -2.378464e+002 8.529798e+001
    endloop
  endfacet
  facet normal 8.541537e-002 -9.963454e-001 0.000000e+000
    outer loop
      vertex   -1.189085e+001 -2.378867e+002 8.644899e+001
      vertex   -1.225976e+001 -2.379184e+002 8.644899e+001
      vertex   -1.189085e+001 -2.378867e+002 8.529798e+001
    endloop
  endfacet
  facet normal 8.541533e-002 -9.963450e-001 -9.714721e-004
    outer loop
      vertex   -1.189085e+001 -2.378867e+002 8.644899e+001
      vertex   -1.207492e+001 -2.379036e+002 8.760000e+001
      vertex   -1.225976e+001 -2.379184e+002 8.644899e+001
    endloop
  endfacet
  facet normal 3.302908e-001 -9.438792e-001 0.000000e+000
    outer loop
      vertex   -7.174832e+000 -2.367717e+002 8.510341e+001
      vertex   -7.541055e+000 -2.368999e+002 8.644899e+001
      vertex   -7.541055e+000 -2.368999e+002 8.529798e+001
    endloop
  endfacet
  facet normal 3.162764e-001 -9.486671e-001 0.000000e+000
    outer loop
      vertex   -7.898835e+000 -2.370192e+002 8.644899e+001
      vertex   -7.898835e+000 -2.370192e+002 8.529798e+001
      vertex   -7.541055e+000 -2.368999e+002 8.529798e+001
    endloop
  endfacet
  facet normal 3.016233e-001 -9.534272e-001 0.000000e+000
    outer loop
      vertex   -7.898835e+000 -2.370192e+002 8.529798e+001
      vertex   -8.257359e+000 -2.371326e+002 8.644899e+001
      vertex   -8.257359e+000 -2.371326e+002 8.529798e+001
    endloop
  endfacet
  facet normal 2.861475e-001 -9.581856e-001 0.000000e+000
    outer loop
      vertex   -8.257359e+000 -2.371326e+002 8.529798e+001
      vertex   -8.257359e+000 -2.371326e+002 8.644899e+001
      vertex   -8.616661e+000 -2.372399e+002 8.644899e+001
    endloop
  endfacet
  facet normal 2.698381e-001 -9.629057e-001 0.000000e+000
    outer loop
      vertex   -8.616661e+000 -2.372399e+002 8.529798e+001
      vertex   -8.616661e+000 -2.372399e+002 8.644899e+001
      vertex   -8.976772e+000 -2.373408e+002 8.644899e+001
    endloop
  endfacet
  facet normal 2.861475e-001 -9.581856e-001 0.000000e+000
    outer loop
      vertex   -8.616661e+000 -2.372399e+002 8.529798e+001
      vertex   -8.257359e+000 -2.371326e+002 8.529798e+001
      vertex   -8.616661e+000 -2.372399e+002 8.644899e+001
    endloop
  endfacet
  facet normal -9.981176e-001 -6.132192e-002 -9.319278e-004
    outer loop
      vertex   -1.262733e+001 -2.379409e+002 8.521638e+001
      vertex   -1.262955e+001 -2.379410e+002 8.760000e+001
      vertex   -1.296188e+001 -2.325096e+002 8.614242e+001
    endloop
  endfacet
  facet normal -9.981176e-001 -6.132192e-002 -9.319278e-004
    outer loop
      vertex   -1.296188e+001 -2.325096e+002 8.614242e+001
      vertex   -1.262955e+001 -2.379410e+002 8.760000e+001
      vertex   -1.296322e+001 -2.325098e+002 8.760000e+001
    endloop
  endfacet
  facet normal -4.533710e-001 8.913219e-001 -1.324795e-006
    outer loop
      vertex   -6.444092e+000 -2.305679e+002 8.760000e+001
      vertex   -6.444269e+000 -2.305680e+002 8.609824e+001
      vertex   -6.745591e+000 -2.307213e+002 8.682256e+001
    endloop
  endfacet
  facet normal -4.421529e-001 8.969395e-001 -5.392915e-004
    outer loop
      vertex   -6.670443e+000 -2.306838e+002 8.760000e+001
      vertex   -6.745591e+000 -2.307213e+002 8.682256e+001
      vertex   -6.894600e+000 -2.307943e+002 8.760000e+001
    endloop
  endfacet
  facet normal -4.555970e-001 8.901855e-001 1.086129e-003
    outer loop
      vertex   -6.670443e+000 -2.306838e+002 8.760000e+001
      vertex   -6.444092e+000 -2.305679e+002 8.760000e+001
      vertex   -6.745591e+000 -2.307213e+002 8.682256e+001
    endloop
  endfacet
  facet normal -4.325499e-001 9.016096e-001 8.229400e-004
    outer loop
      vertex   -7.104755e+000 -2.308941e+002 8.608112e+001
      vertex   -7.043473e+000 -2.308654e+002 8.682256e+001
      vertex   -6.777990e+000 -2.307373e+002 8.608883e+001
    endloop
  endfacet
  facet normal -4.172320e-001 9.087997e-001 -7.216691e-004
    outer loop
      vertex   -7.104755e+000 -2.308941e+002 8.608112e+001
      vertex   -7.337663e+000 -2.310004e+002 8.682256e+001
      vertex   -7.043473e+000 -2.308654e+002 8.682256e+001
    endloop
  endfacet
  facet normal -4.125613e-001 9.109292e-001 1.050930e-003
    outer loop
      vertex   -7.104755e+000 -2.308941e+002 8.608112e+001
      vertex   -7.427707e+000 -2.310404e+002 8.607495e+001
      vertex   -7.337663e+000 -2.310004e+002 8.682256e+001
    endloop
  endfacet
  facet normal -3.990162e-001 9.169434e-001 -9.015666e-004
    outer loop
      vertex   -7.337663e+000 -2.310004e+002 8.682256e+001
      vertex   -7.427707e+000 -2.310404e+002 8.607495e+001
      vertex   -7.628336e+000 -2.311269e+002 8.682256e+001
    endloop
  endfacet
  facet normal -3.945946e-001 9.188532e-001 -1.985377e-003
    outer loop
      vertex   -7.336630e+000 -2.310000e+002 8.760000e+001
      vertex   -7.628336e+000 -2.311269e+002 8.682256e+001
      vertex   -7.770768e+000 -2.311864e+002 8.760000e+001
    endloop
  endfacet
  facet normal -3.990164e-001 9.169438e-001 -1.448265e-005
    outer loop
      vertex   -7.336630e+000 -2.310000e+002 8.760000e+001
      vertex   -7.337663e+000 -2.310004e+002 8.682256e+001
      vertex   -7.628336e+000 -2.311269e+002 8.682256e+001
    endloop
  endfacet
  facet normal -4.172321e-001 9.088000e-001 1.455624e-005
    outer loop
      vertex   -7.336630e+000 -2.310000e+002 8.760000e+001
      vertex   -7.043473e+000 -2.308654e+002 8.682256e+001
      vertex   -7.337663e+000 -2.310004e+002 8.682256e+001
    endloop
  endfacet
  facet normal -4.218676e-001 9.066550e-001 -2.104806e-003
    outer loop
      vertex   -7.336630e+000 -2.310000e+002 8.760000e+001
      vertex   -6.894600e+000 -2.307943e+002 8.760000e+001
      vertex   -7.043473e+000 -2.308654e+002 8.682256e+001
    endloop
  endfacet
  facet normal -4.353814e-001 9.002454e-001 1.068961e-003
    outer loop
      vertex   -7.043473e+000 -2.308654e+002 8.682256e+001
      vertex   -6.894600e+000 -2.307943e+002 8.760000e+001
      vertex   -6.745591e+000 -2.307213e+002 8.682256e+001
    endloop
  endfacet
  facet normal -4.524189e-001 8.918054e-001 4.970563e-004
    outer loop
      vertex   -6.777990e+000 -2.307373e+002 8.608883e+001
      vertex   -6.745591e+000 -2.307213e+002 8.682256e+001
      vertex   -6.444269e+000 -2.305680e+002 8.609824e+001
    endloop
  endfacet
  facet normal -4.353816e-001 9.002459e-001 -4.396082e-004
    outer loop
      vertex   -6.777990e+000 -2.307373e+002 8.608883e+001
      vertex   -7.043473e+000 -2.308654e+002 8.682256e+001
      vertex   -6.745591e+000 -2.307213e+002 8.682256e+001
    endloop
  endfacet
  facet normal -3.923819e-001 9.198016e-001 1.209765e-003
    outer loop
      vertex   -7.427707e+000 -2.310404e+002 8.607495e+001
      vertex   -7.750194e+000 -2.311779e+002 8.607020e+001
      vertex   -7.628336e+000 -2.311269e+002 8.682256e+001
    endloop
  endfacet
  facet normal -3.808255e-001 9.246464e-001 -9.903741e-004
    outer loop
      vertex   -7.628336e+000 -2.311269e+002 8.682256e+001
      vertex   -7.750194e+000 -2.311779e+002 8.607020e+001
      vertex   -7.915667e+000 -2.312453e+002 8.682256e+001
    endloop
  endfacet
  facet normal -3.674312e-001 9.300487e-001 -1.924881e-003
    outer loop
      vertex   -7.770768e+000 -2.311864e+002 8.760000e+001
      vertex   -7.915667e+000 -2.312453e+002 8.682256e+001
      vertex   -8.197600e+000 -2.313550e+002 8.760000e+001
    endloop
  endfacet
  facet normal -3.808255e-001 9.246464e-001 9.805073e-004
    outer loop
      vertex   -7.770768e+000 -2.311864e+002 8.760000e+001
      vertex   -7.628336e+000 -2.311269e+002 8.682256e+001
      vertex   -7.915667e+000 -2.312453e+002 8.682256e+001
    endloop
  endfacet
  facet normal -3.719306e-001 9.282597e-001 1.289391e-003
    outer loop
      vertex   -7.750194e+000 -2.311779e+002 8.607020e+001
      vertex   -8.075775e+000 -2.313084e+002 8.606682e+001
      vertex   -7.915667e+000 -2.312453e+002 8.682256e+001
    endloop
  endfacet
  facet normal -3.627569e-001 9.318833e-001 -9.566689e-004
    outer loop
      vertex   -7.915667e+000 -2.312453e+002 8.682256e+001
      vertex   -8.075775e+000 -2.313084e+002 8.606682e+001
      vertex   -8.199829e+000 -2.313559e+002 8.682256e+001
    endloop
  endfacet
  facet normal -3.449123e-001 9.386349e-001 -2.916192e-005
    outer loop
      vertex   -8.197600e+000 -2.313550e+002 8.760000e+001
      vertex   -8.199829e+000 -2.313559e+002 8.682256e+001
      vertex   -8.480998e+000 -2.314592e+002 8.682256e+001
    endloop
  endfacet
  facet normal -3.273966e-001 9.448866e-001 8.678064e-004
    outer loop
      vertex   -8.617713e+000 -2.315073e+002 8.760000e+001
      vertex   -8.480998e+000 -2.314592e+002 8.682256e+001
      vertex   -8.759347e+000 -2.315556e+002 8.682256e+001
    endloop
  endfacet
  facet normal -3.103177e-001 9.506329e-001 3.946257e-005
    outer loop
      vertex   -9.031694e+000 -2.316446e+002 8.760000e+001
      vertex   -8.759347e+000 -2.315556e+002 8.682256e+001
      vertex   -9.035052e+000 -2.316456e+002 8.682256e+001
    endloop
  endfacet
  facet normal -2.937831e-001 9.558719e-001 -6.351537e-004
    outer loop
      vertex   -9.308287e+000 -2.317296e+002 8.682256e+001
      vertex   -9.035052e+000 -2.316456e+002 8.682256e+001
      vertex   -9.109126e+000 -2.316689e+002 8.606502e+001
    endloop
  endfacet
  facet normal -2.863961e-001 9.581102e-001 1.486293e-003
    outer loop
      vertex   -9.485608e+000 -2.317815e+002 8.606751e+001
      vertex   -9.308287e+000 -2.317296e+002 8.682256e+001
      vertex   -9.109126e+000 -2.316689e+002 8.606502e+001
    endloop
  endfacet
  facet normal -2.703900e-001 9.627474e-001 -2.590979e-003
    outer loop
      vertex   -9.485608e+000 -2.317815e+002 8.606751e+001
      vertex   -9.848046e+000 -2.318812e+002 8.682256e+001
      vertex   -9.308287e+000 -2.317296e+002 8.682256e+001
    endloop
  endfacet
  facet normal -2.699643e-001 9.628674e-001 -2.370794e-003
    outer loop
      vertex   -9.485608e+000 -2.317815e+002 8.606751e+001
      vertex   -9.682098e+000 -2.318365e+002 8.606942e+001
      vertex   -9.848046e+000 -2.318812e+002 8.682256e+001
    endloop
  endfacet
  facet normal -2.589584e-001 9.658885e-001 2.334463e-004
    outer loop
      vertex   -9.848046e+000 -2.318812e+002 8.682256e+001
      vertex   -9.682098e+000 -2.318365e+002 8.606942e+001
      vertex   -9.884746e+000 -2.318909e+002 8.607180e+001
    endloop
  endfacet
  facet normal -2.480804e-001 9.687394e-001 -3.349878e-004
    outer loop
      vertex   -1.009404e+001 -2.319445e+002 8.607468e+001
      vertex   -9.848046e+000 -2.318812e+002 8.682256e+001
      vertex   -9.884746e+000 -2.318909e+002 8.607180e+001
    endloop
  endfacet
  facet normal -2.418803e-001 9.703028e-001 -2.506576e-003
    outer loop
      vertex   -1.009404e+001 -2.319445e+002 8.607468e+001
      vertex   -1.038002e+001 -2.320138e+002 8.682256e+001
      vertex   -9.848046e+000 -2.318812e+002 8.682256e+001
    endloop
  endfacet
  facet normal -2.373762e-001 9.714176e-001 -6.809080e-004
    outer loop
      vertex   -1.009404e+001 -2.319445e+002 8.607468e+001
      vertex   -1.031047e+001 -2.319974e+002 8.607808e+001
      vertex   -1.038002e+001 -2.320138e+002 8.682256e+001
    endloop
  endfacet
  facet normal -2.269189e-001 9.739136e-001 3.511567e-004
    outer loop
      vertex   -1.038002e+001 -2.320138e+002 8.682256e+001
      vertex   -1.031047e+001 -2.319974e+002 8.607808e+001
      vertex   -1.053452e+001 -2.320496e+002 8.608203e+001
    endloop
  endfacet
  facet normal -2.168917e-001 9.761945e-001 -1.507368e-003
    outer loop
      vertex   -1.090560e+001 -2.321309e+002 8.682256e+001
      vertex   -1.053452e+001 -2.320496e+002 8.608203e+001
      vertex   -1.076666e+001 -2.321011e+002 8.608654e+001
    endloop
  endfacet
  facet normal -2.073078e-001 9.782757e-001 3.859071e-004
    outer loop
      vertex   -1.100735e+001 -2.321521e+002 8.609163e+001
      vertex   -1.090560e+001 -2.321309e+002 8.682256e+001
      vertex   -1.076666e+001 -2.321011e+002 8.608654e+001
    endloop
  endfacet
  facet normal -1.984512e-001 9.801103e-001 -9.004007e-004
    outer loop
      vertex   -1.100735e+001 -2.321521e+002 8.609163e+001
      vertex   -1.125707e+001 -2.322027e+002 8.609730e+001
      vertex   -1.090560e+001 -2.321309e+002 8.682256e+001
    endloop
  endfacet
  facet normal -1.974981e-001 9.803023e-001 -1.381323e-003
    outer loop
      vertex   -1.090560e+001 -2.321309e+002 8.682256e+001
      vertex   -1.125707e+001 -2.322027e+002 8.609730e+001
      vertex   -1.142399e+001 -2.322353e+002 8.682256e+001
    endloop
  endfacet
  facet normal -1.954302e-001 9.807176e-001 3.555448e-005
    outer loop
      vertex   -1.103013e+001 -2.321568e+002 8.760000e+001
      vertex   -1.142399e+001 -2.322353e+002 8.682256e+001
      vertex   -1.141963e+001 -2.322345e+002 8.760000e+001
    endloop
  endfacet
  facet normal -1.974981e-001 9.803026e-001 1.125081e-003
    outer loop
      vertex   -1.103013e+001 -2.321568e+002 8.760000e+001
      vertex   -1.090560e+001 -2.321309e+002 8.682256e+001
      vertex   -1.142399e+001 -2.322353e+002 8.682256e+001
    endloop
  endfacet
  facet normal -2.094445e-001 9.778201e-001 -8.714632e-004
    outer loop
      vertex   -1.103013e+001 -2.321568e+002 8.760000e+001
      vertex   -1.063802e+001 -2.320729e+002 8.760000e+001
      vertex   -1.090560e+001 -2.321309e+002 8.682256e+001
    endloop
  endfacet
  facet normal -2.173528e-001 9.760911e-001 1.979468e-003
    outer loop
      vertex   -1.090560e+001 -2.321309e+002 8.682256e+001
      vertex   -1.063802e+001 -2.320729e+002 8.760000e+001
      vertex   -1.038002e+001 -2.320138e+002 8.682256e+001
    endloop
  endfacet
  facet normal -2.173528e-001 9.760915e-001 -1.749749e-003
    outer loop
      vertex   -1.053452e+001 -2.320496e+002 8.608203e+001
      vertex   -1.090560e+001 -2.321309e+002 8.682256e+001
      vertex   -1.038002e+001 -2.320138e+002 8.682256e+001
    endloop
  endfacet
  facet normal -3.511299e-001 9.363260e-001 1.231207e-003
    outer loop
      vertex   -8.075775e+000 -2.313084e+002 8.606682e+001
      vertex   -8.408190e+000 -2.314330e+002 8.606479e+001
      vertex   -8.199829e+000 -2.313559e+002 8.682256e+001
    endloop
  endfacet
  facet normal -3.449122e-001 9.386347e-001 -7.134676e-004
    outer loop
      vertex   -8.199829e+000 -2.313559e+002 8.682256e+001
      vertex   -8.408190e+000 -2.314330e+002 8.606479e+001
      vertex   -8.480998e+000 -2.314592e+002 8.682256e+001
    endloop
  endfacet
  facet normal -3.299275e-001 9.440058e-001 9.118414e-004
    outer loop
      vertex   -8.480998e+000 -2.314592e+002 8.682256e+001
      vertex   -8.408190e+000 -2.314330e+002 8.606479e+001
      vertex   -8.751318e+000 -2.315529e+002 8.606416e+001
    endloop
  endfacet
  facet normal -3.103177e-001 9.506329e-001 1.021336e-004
    outer loop
      vertex   -8.759347e+000 -2.315556e+002 8.682256e+001
      vertex   -8.751318e+000 -2.315529e+002 8.606416e+001
      vertex   -9.035052e+000 -2.316456e+002 8.682256e+001
    endloop
  endfacet
  facet normal -3.273967e-001 9.448870e-001 -9.915339e-005
    outer loop
      vertex   -8.759347e+000 -2.315556e+002 8.682256e+001
      vertex   -8.480998e+000 -2.314592e+002 8.682256e+001
      vertex   -8.751318e+000 -2.315529e+002 8.606416e+001
    endloop
  endfacet
  facet normal -3.083231e-001 9.512812e-001 9.276023e-004
    outer loop
      vertex   -8.751318e+000 -2.315529e+002 8.606416e+001
      vertex   -9.109126e+000 -2.316689e+002 8.606502e+001
      vertex   -9.035052e+000 -2.316456e+002 8.682256e+001
    endloop
  endfacet
  facet normal -1.903773e-001 9.817109e-001 3.208168e-004
    outer loop
      vertex   -1.125707e+001 -2.322027e+002 8.609730e+001
      vertex   -1.151626e+001 -2.322530e+002 8.610356e+001
      vertex   -1.142399e+001 -2.322353e+002 8.682256e+001
    endloop
  endfacet
  facet normal -1.833828e-001 9.830414e-001 -6.095298e-004
    outer loop
      vertex   -1.142399e+001 -2.322353e+002 8.682256e+001
      vertex   -1.151626e+001 -2.322530e+002 8.610356e+001
      vertex   -1.178538e+001 -2.323032e+002 8.611039e+001
    endloop
  endfacet
  facet normal -1.775862e-001 9.841052e-001 2.551657e-004
    outer loop
      vertex   -1.193880e+001 -2.323310e+002 8.682256e+001
      vertex   -1.178538e+001 -2.323032e+002 8.611039e+001
      vertex   -1.206485e+001 -2.323536e+002 8.611776e+001
    endloop
  endfacet
  facet normal -1.732845e-001 9.848718e-001 8.818078e-005
    outer loop
      vertex   -1.219314e+001 -2.323763e+002 8.760000e+001
      vertex   -1.206485e+001 -2.323536e+002 8.611776e+001
      vertex   -1.235509e+001 -2.324047e+002 8.612564e+001
    endloop
  endfacet
  facet normal -1.703623e-001 9.853815e-001 3.790041e-008
    outer loop
      vertex   -1.296322e+001 -2.325098e+002 8.760000e+001
      vertex   -1.235509e+001 -2.324047e+002 8.612564e+001
      vertex   -1.296188e+001 -2.325096e+002 8.614242e+001
    endloop
  endfacet
  facet normal -1.708134e-001 9.853034e-001 -1.915789e-004
    outer loop
      vertex   -1.296322e+001 -2.325098e+002 8.760000e+001
      vertex   -1.219314e+001 -2.323763e+002 8.760000e+001
      vertex   -1.235509e+001 -2.324047e+002 8.612564e+001
    endloop
  endfacet
  facet normal -1.828136e-001 9.831472e-001 -9.084587e-004
    outer loop
      vertex   -1.142399e+001 -2.322353e+002 8.682256e+001
      vertex   -1.178538e+001 -2.323032e+002 8.611039e+001
      vertex   -1.193880e+001 -2.323310e+002 8.682256e+001
    endloop
  endfacet
  facet normal -1.803600e-001 9.835991e-001 -1.732363e-003
    outer loop
      vertex   -1.141963e+001 -2.322345e+002 8.760000e+001
      vertex   -1.193880e+001 -2.323310e+002 8.682256e+001
      vertex   -1.219314e+001 -2.323763e+002 8.760000e+001
    endloop
  endfacet
  facet normal -1.828137e-001 9.831476e-001 -3.774484e-005
    outer loop
      vertex   -1.141963e+001 -2.322345e+002 8.760000e+001
      vertex   -1.142399e+001 -2.322353e+002 8.682256e+001
      vertex   -1.193880e+001 -2.323310e+002 8.682256e+001
    endloop
  endfacet
  facet normal -1.755742e-001 9.844662e-001 -1.162072e-004
    outer loop
      vertex   -1.193880e+001 -2.323310e+002 8.682256e+001
      vertex   -1.206485e+001 -2.323536e+002 8.611776e+001
      vertex   -1.219314e+001 -2.323763e+002 8.760000e+001
    endloop
  endfacet
  facet normal -2.261800e-001 9.740849e-001 -1.102273e-003
    outer loop
      vertex   -1.063802e+001 -2.320729e+002 8.760000e+001
      vertex   -1.024270e+001 -2.319811e+002 8.760000e+001
      vertex   -1.038002e+001 -2.320138e+002 8.682256e+001
    endloop
  endfacet
  facet normal -2.418807e-001 9.703043e-001 1.830191e-003
    outer loop
      vertex   -1.038002e+001 -2.320138e+002 8.682256e+001
      vertex   -1.024270e+001 -2.319811e+002 8.760000e+001
      vertex   -9.848046e+000 -2.318812e+002 8.682256e+001
    endloop
  endfacet
  facet normal -2.453863e-001 9.694254e-001 -6.230231e-005
    outer loop
      vertex   -9.848046e+000 -2.318812e+002 8.682256e+001
      vertex   -1.024270e+001 -2.319811e+002 8.760000e+001
      vertex   -9.843602e+000 -2.318800e+002 8.760000e+001
    endloop
  endfacet
  facet normal -2.667743e-001 9.637590e-001 6.850436e-005
    outer loop
      vertex   -9.440128e+000 -2.317684e+002 8.760000e+001
      vertex   -9.848046e+000 -2.318812e+002 8.682256e+001
      vertex   -9.843602e+000 -2.318800e+002 8.760000e+001
    endloop
  endfacet
  facet normal -2.703903e-001 9.627485e-001 2.112512e-003
    outer loop
      vertex   -9.440128e+000 -2.317684e+002 8.760000e+001
      vertex   -9.308287e+000 -2.317296e+002 8.682256e+001
      vertex   -9.848046e+000 -2.318812e+002 8.682256e+001
    endloop
  endfacet
  facet normal -2.900229e-001 9.570185e-001 -1.502339e-003
    outer loop
      vertex   -9.440128e+000 -2.317684e+002 8.760000e+001
      vertex   -9.031694e+000 -2.316446e+002 8.760000e+001
      vertex   -9.308287e+000 -2.317296e+002 8.682256e+001
    endloop
  endfacet
  facet normal -2.937831e-001 9.558721e-001 -3.914312e-005
    outer loop
      vertex   -9.308287e+000 -2.317296e+002 8.682256e+001
      vertex   -9.031694e+000 -2.316446e+002 8.760000e+001
      vertex   -9.035052e+000 -2.316456e+002 8.682256e+001
    endloop
  endfacet
  facet normal -3.147882e-001 9.491604e-001 -1.695059e-003
    outer loop
      vertex   -9.031694e+000 -2.316446e+002 8.760000e+001
      vertex   -8.617713e+000 -2.315073e+002 8.760000e+001
      vertex   -8.759347e+000 -2.315556e+002 8.682256e+001
    endloop
  endfacet
  facet normal -3.407115e-001 9.401662e-001 -1.765638e-003
    outer loop
      vertex   -8.617713e+000 -2.315073e+002 8.760000e+001
      vertex   -8.197600e+000 -2.313550e+002 8.760000e+001
      vertex   -8.480998e+000 -2.314592e+002 8.682256e+001
    endloop
  endfacet
  facet normal -3.627570e-001 9.318838e-001 2.931647e-005
    outer loop
      vertex   -8.199829e+000 -2.313559e+002 8.682256e+001
      vertex   -8.197600e+000 -2.313550e+002 8.760000e+001
      vertex   -7.915667e+000 -2.312453e+002 8.682256e+001
    endloop
  endfacet
  facet normal 0.000000e+000 0.000000e+000 1.000000e+000
    outer loop
      vertex   -6.444092e+000 -2.305679e+002 8.760000e+001
      vertex   -6.670443e+000 -2.306838e+002 8.760000e+001
      vertex   -3.996906e+000 -2.354427e+002 8.760000e+001
    endloop
  endfacet
  facet normal 4.964726e-014 2.789166e-014 1.000000e+000
    outer loop
      vertex   -3.996906e+000 -2.354427e+002 8.760000e+001
      vertex   -6.670443e+000 -2.306838e+002 8.760000e+001
      vertex   -6.894600e+000 -2.307943e+002 8.760000e+001
    endloop
  endfacet
  facet normal -2.381801e-014 -1.790467e-014 1.000000e+000
    outer loop
      vertex   -7.336630e+000 -2.310000e+002 8.760000e+001
      vertex   -3.996906e+000 -2.354427e+002 8.760000e+001
      vertex   -6.894600e+000 -2.307943e+002 8.760000e+001
    endloop
  endfacet
  facet normal -0.000000e+000 0.000000e+000 1.000000e+000
    outer loop
      vertex   -7.336630e+000 -2.310000e+002 8.760000e+001
      vertex   -4.525303e+000 -2.356866e+002 8.760000e+001
      vertex   -3.996906e+000 -2.354427e+002 8.760000e+001
    endloop
  endfacet
  facet normal 0.000000e+000 0.000000e+000 1.000000e+000
    outer loop
      vertex   -7.336630e+000 -2.310000e+002 8.760000e+001
      vertex   -7.770768e+000 -2.311864e+002 8.760000e+001
      vertex   -4.525303e+000 -2.356866e+002 8.760000e+001
    endloop
  endfacet
  facet normal 0.000000e+000 0.000000e+000 1.000000e+000
    outer loop
      vertex   -4.525303e+000 -2.356866e+002 8.760000e+001
      vertex   -7.770768e+000 -2.311864e+002 8.760000e+001
      vertex   -5.054660e+000 -2.359230e+002 8.760000e+001
    endloop
  endfacet
  facet normal 0.000000e+000 0.000000e+000 1.000000e+000
    outer loop
      vertex   -5.054660e+000 -2.359230e+002 8.760000e+001
      vertex   -7.770768e+000 -2.311864e+002 8.760000e+001
      vertex   -8.197600e+000 -2.313550e+002 8.760000e+001
    endloop
  endfacet
  facet normal 0.000000e+000 0.000000e+000 1.000000e+000
    outer loop
      vertex   -5.585090e+000 -2.361509e+002 8.760000e+001
      vertex   -8.197600e+000 -2.313550e+002 8.760000e+001
      vertex   -8.617713e+000 -2.315073e+002 8.760000e+001
    endloop
  endfacet
  facet normal 0.000000e+000 0.000000e+000 1.000000e+000
    outer loop
      vertex   -6.116706e+000 -2.363694e+002 8.760000e+001
      vertex   -8.617713e+000 -2.315073e+002 8.760000e+001
      vertex   -9.031694e+000 -2.316446e+002 8.760000e+001
    endloop
  endfacet
  facet normal 0.000000e+000 0.000000e+000 1.000000e+000
    outer loop
      vertex   -6.649619e+000 -2.365778e+002 8.760000e+001
      vertex   -9.031694e+000 -2.316446e+002 8.760000e+001
      vertex   -9.440128e+000 -2.317684e+002 8.760000e+001
    endloop
  endfacet
  facet normal 0.000000e+000 0.000000e+000 1.000000e+000
    outer loop
      vertex   -7.183943e+000 -2.367750e+002 8.760000e+001
      vertex   -9.440128e+000 -2.317684e+002 8.760000e+001
      vertex   -9.843602e+000 -2.318800e+002 8.760000e+001
    endloop
  endfacet
  facet normal 0.000000e+000 0.000000e+000 1.000000e+000
    outer loop
      vertex   -7.719791e+000 -2.369602e+002 8.760000e+001
      vertex   -9.843602e+000 -2.318800e+002 8.760000e+001
      vertex   -1.024270e+001 -2.319811e+002 8.760000e+001
    endloop
  endfacet
  facet normal 0.000000e+000 0.000000e+000 1.000000e+000
    outer loop
      vertex   -8.257274e+000 -2.371326e+002 8.760000e+001
      vertex   -1.024270e+001 -2.319811e+002 8.760000e+001
      vertex   -1.063802e+001 -2.320729e+002 8.760000e+001
    endloop
  endfacet
  facet normal 0.000000e+000 0.000000e+000 1.000000e+000
    outer loop
      vertex   -8.796506e+000 -2.372911e+002 8.760000e+001
      vertex   -1.063802e+001 -2.320729e+002 8.760000e+001
      vertex   -1.103013e+001 -2.321568e+002 8.760000e+001
    endloop
  endfacet
  facet normal 0.000000e+000 0.000000e+000 1.000000e+000
    outer loop
      vertex   -9.337599e+000 -2.374350e+002 8.760000e+001
      vertex   -1.103013e+001 -2.321568e+002 8.760000e+001
      vertex   -1.141963e+001 -2.322345e+002 8.760000e+001
    endloop
  endfacet
  facet normal 0.000000e+000 0.000000e+000 1.000000e+000
    outer loop
      vertex   -9.880665e+000 -2.375634e+002 8.760000e+001
      vertex   -1.141963e+001 -2.322345e+002 8.760000e+001
      vertex   -1.042582e+001 -2.376753e+002 8.760000e+001
    endloop
  endfacet
  facet normal 0.000000e+000 -0.000000e+000 1.000000e+000
    outer loop
      vertex   -9.880665e+000 -2.375634e+002 8.760000e+001
      vertex   -9.337599e+000 -2.374350e+002 8.760000e+001
      vertex   -1.141963e+001 -2.322345e+002 8.760000e+001
    endloop
  endfacet
  facet normal 0.000000e+000 0.000000e+000 1.000000e+000
    outer loop
      vertex   -5.054660e+000 -2.359230e+002 8.760000e+001
      vertex   -8.197600e+000 -2.313550e+002 8.760000e+001
      vertex   -5.585090e+000 -2.361509e+002 8.760000e+001
    endloop
  endfacet
  facet normal 0.000000e+000 0.000000e+000 1.000000e+000
    outer loop
      vertex   -5.585090e+000 -2.361509e+002 8.760000e+001
      vertex   -8.617713e+000 -2.315073e+002 8.760000e+001
      vertex   -6.116706e+000 -2.363694e+002 8.760000e+001
    endloop
  endfacet
  facet normal 0.000000e+000 0.000000e+000 1.000000e+000
    outer loop
      vertex   -6.116706e+000 -2.363694e+002 8.760000e+001
      vertex   -9.031694e+000 -2.316446e+002 8.760000e+001
      vertex   -6.649619e+000 -2.365778e+002 8.760000e+001
    endloop
  endfacet
  facet normal 0.000000e+000 0.000000e+000 1.000000e+000
    outer loop
      vertex   -6.649619e+000 -2.365778e+002 8.760000e+001
      vertex   -9.440128e+000 -2.317684e+002 8.760000e+001
      vertex   -7.183943e+000 -2.367750e+002 8.760000e+001
    endloop
  endfacet
  facet normal 0.000000e+000 0.000000e+000 1.000000e+000
    outer loop
      vertex   -7.183943e+000 -2.367750e+002 8.760000e+001
      vertex   -9.843602e+000 -2.318800e+002 8.760000e+001
      vertex   -7.719791e+000 -2.369602e+002 8.760000e+001
    endloop
  endfacet
  facet normal 0.000000e+000 0.000000e+000 1.000000e+000
    outer loop
      vertex   -7.719791e+000 -2.369602e+002 8.760000e+001
      vertex   -1.024270e+001 -2.319811e+002 8.760000e+001
      vertex   -8.257274e+000 -2.371326e+002 8.760000e+001
    endloop
  endfacet
  facet normal 0.000000e+000 0.000000e+000 1.000000e+000
    outer loop
      vertex   -8.257274e+000 -2.371326e+002 8.760000e+001
      vertex   -1.063802e+001 -2.320729e+002 8.760000e+001
      vertex   -8.796506e+000 -2.372911e+002 8.760000e+001
    endloop
  endfacet
  facet normal 0.000000e+000 0.000000e+000 1.000000e+000
    outer loop
      vertex   -8.796506e+000 -2.372911e+002 8.760000e+001
      vertex   -1.103013e+001 -2.321568e+002 8.760000e+001
      vertex   -9.337599e+000 -2.374350e+002 8.760000e+001
    endloop
  endfacet
  facet normal 0.000000e+000 0.000000e+000 1.000000e+000
    outer loop
      vertex   -1.141963e+001 -2.322345e+002 8.760000e+001
      vertex   -1.219314e+001 -2.323763e+002 8.760000e+001
      vertex   -1.042582e+001 -2.376753e+002 8.760000e+001
    endloop
  endfacet
  facet normal 0.000000e+000 0.000000e+000 1.000000e+000
    outer loop
      vertex   -1.042582e+001 -2.376753e+002 8.760000e+001
      vertex   -1.219314e+001 -2.323763e+002 8.760000e+001
      vertex   -1.097317e+001 -2.377699e+002 8.760000e+001
    endloop
  endfacet
  facet normal 0.000000e+000 0.000000e+000 1.000000e+000
    outer loop
      vertex   -1.097317e+001 -2.377699e+002 8.760000e+001
      vertex   -1.219314e+001 -2.323763e+002 8.760000e+001
      vertex   -1.152283e+001 -2.378463e+002 8.760000e+001
    endloop
  endfacet
  facet normal 0.000000e+000 0.000000e+000 1.000000e+000
    outer loop
      vertex   -1.152283e+001 -2.378463e+002 8.760000e+001
      vertex   -1.219314e+001 -2.323763e+002 8.760000e+001
      vertex   -1.296322e+001 -2.325098e+002 8.760000e+001
    endloop
  endfacet
  facet normal 0.000000e+000 0.000000e+000 1.000000e+000
    outer loop
      vertex   -1.207492e+001 -2.379036e+002 8.760000e+001
      vertex   -1.296322e+001 -2.325098e+002 8.760000e+001
      vertex   -1.262955e+001 -2.379410e+002 8.760000e+001
    endloop
  endfacet
  facet normal 0.000000e+000 -0.000000e+000 1.000000e+000
    outer loop
      vertex   -1.207492e+001 -2.379036e+002 8.760000e+001
      vertex   -1.152283e+001 -2.378463e+002 8.760000e+001
      vertex   -1.296322e+001 -2.325098e+002 8.760000e+001
    endloop
  endfacet
  facet normal -5.567386e-002 1.644813e-001 -9.848078e-001
    outer loop
      vertex   -1.296188e+001 -2.325096e+002 8.614242e+001
      vertex   -1.235509e+001 -2.324047e+002 8.612564e+001
      vertex   -1.262733e+001 -2.379409e+002 8.521638e+001
    endloop
  endfacet
  facet normal -5.567386e-002 1.644813e-001 -9.848078e-001
    outer loop
      vertex   -1.262733e+001 -2.379409e+002 8.521638e+001
      vertex   -1.235509e+001 -2.324047e+002 8.612564e+001
      vertex   -1.206485e+001 -2.323536e+002 8.611776e+001
    endloop
  endfacet
  facet normal -5.567386e-002 1.644813e-001 -9.848078e-001
    outer loop
      vertex   -1.178538e+001 -2.323032e+002 8.611039e+001
      vertex   -1.262733e+001 -2.379409e+002 8.521638e+001
      vertex   -1.206485e+001 -2.323536e+002 8.611776e+001
    endloop
  endfacet
  facet normal -5.567386e-002 1.644813e-001 -9.848078e-001
    outer loop
      vertex   -1.178538e+001 -2.323032e+002 8.611039e+001
      vertex   -1.151626e+001 -2.322530e+002 8.610356e+001
      vertex   -1.262733e+001 -2.379409e+002 8.521638e+001
    endloop
  endfacet
  facet normal -5.567386e-002 1.644813e-001 -9.848078e-001
    outer loop
      vertex   -1.262733e+001 -2.379409e+002 8.521638e+001
      vertex   -1.151626e+001 -2.322530e+002 8.610356e+001
      vertex   -8.063683e+000 -2.370721e+002 8.510349e+001
    endloop
  endfacet
  facet normal -5.567386e-002 1.644813e-001 -9.848078e-001
    outer loop
      vertex   -8.342551e+000 -2.371586e+002 8.510480e+001
      vertex   -1.262733e+001 -2.379409e+002 8.521638e+001
      vertex   -8.063683e+000 -2.370721e+002 8.510349e+001
    endloop
  endfacet
  facet normal -5.567386e-002 1.644813e-001 -9.848078e-001
    outer loop
      vertex   -8.342551e+000 -2.371586e+002 8.510480e+001
      vertex   -8.613382e+000 -2.372389e+002 8.510670e+001
      vertex   -1.262733e+001 -2.379409e+002 8.521638e+001
    endloop
  endfacet
  facet normal -5.567386e-002 1.644813e-001 -9.848078e-001
    outer loop
      vertex   -1.262733e+001 -2.379409e+002 8.521638e+001
      vertex   -8.613382e+000 -2.372389e+002 8.510670e+001
      vertex   -8.876592e+000 -2.373134e+002 8.510914e+001
    endloop
  endfacet
  facet normal -5.567386e-002 1.644813e-001 -9.848078e-001
    outer loop
      vertex   -9.132609e+000 -2.373824e+002 8.511210e+001
      vertex   -1.262733e+001 -2.379409e+002 8.521638e+001
      vertex   -8.876592e+000 -2.373134e+002 8.510914e+001
    endloop
  endfacet
  facet normal -5.567386e-002 1.644813e-001 -9.848078e-001
    outer loop
      vertex   -9.132609e+000 -2.373824e+002 8.511210e+001
      vertex   -9.381868e+000 -2.374461e+002 8.511554e+001
      vertex   -1.262733e+001 -2.379409e+002 8.521638e+001
    endloop
  endfacet
  facet normal -5.567386e-002 1.644813e-001 -9.848078e-001
    outer loop
      vertex   -1.262733e+001 -2.379409e+002 8.521638e+001
      vertex   -9.381868e+000 -2.374461e+002 8.511554e+001
      vertex   -9.624817e+000 -2.375050e+002 8.511944e+001
    endloop
  endfacet
  facet normal -5.567386e-002 1.644813e-001 -9.848078e-001
    outer loop
      vertex   -9.861913e+000 -2.375592e+002 8.512379e+001
      vertex   -1.262733e+001 -2.379409e+002 8.521638e+001
      vertex   -9.624817e+000 -2.375050e+002 8.511944e+001
    endloop
  endfacet
  facet normal -5.567386e-002 1.644813e-001 -9.848078e-001
    outer loop
      vertex   -9.861913e+000 -2.375592e+002 8.512379e+001
      vertex   -1.009362e+001 -2.376092e+002 8.512854e+001
      vertex   -1.262733e+001 -2.379409e+002 8.521638e+001
    endloop
  endfacet
  facet normal -5.567386e-002 1.644813e-001 -9.848078e-001
    outer loop
      vertex   -1.262733e+001 -2.379409e+002 8.521638e+001
      vertex   -1.009362e+001 -2.376092e+002 8.512854e+001
      vertex   -1.032041e+001 -2.376550e+002 8.513371e+001
    endloop
  endfacet
  facet normal -5.567386e-002 1.644813e-001 -9.848078e-001
    outer loop
      vertex   -1.054276e+001 -2.376971e+002 8.513926e+001
      vertex   -1.262733e+001 -2.379409e+002 8.521638e+001
      vertex   -1.032041e+001 -2.376550e+002 8.513371e+001
    endloop
  endfacet
  facet normal -5.567386e-002 1.644813e-001 -9.848078e-001
    outer loop
      vertex   -1.054276e+001 -2.376971e+002 8.513926e+001
      vertex   -1.097607e+001 -2.377704e+002 8.515151e+001
      vertex   -1.262733e+001 -2.379409e+002 8.521638e+001
    endloop
  endfacet
  facet normal -5.567386e-002 1.644813e-001 -9.848078e-001
    outer loop
      vertex   -1.262733e+001 -2.379409e+002 8.521638e+001
      vertex   -1.097607e+001 -2.377704e+002 8.515151e+001
      vertex   -1.139741e+001 -2.378306e+002 8.516527e+001
    endloop
  endfacet
  facet normal -5.567386e-002 1.644813e-001 -9.848078e-001
    outer loop
      vertex   -1.181060e+001 -2.378787e+002 8.518060e+001
      vertex   -1.262733e+001 -2.379409e+002 8.521638e+001
      vertex   -1.139741e+001 -2.378306e+002 8.516527e+001
    endloop
  endfacet
  facet normal -5.567386e-002 1.644813e-001 -9.848078e-001
    outer loop
      vertex   -1.181060e+001 -2.378787e+002 8.518060e+001
      vertex   -1.221936e+001 -2.379153e+002 8.519758e+001
      vertex   -1.262733e+001 -2.379409e+002 8.521638e+001
    endloop
  endfacet
  facet normal -5.567386e-002 1.644813e-001 -9.848078e-001
    outer loop
      vertex   -8.063683e+000 -2.370721e+002 8.510349e+001
      vertex   -1.151626e+001 -2.322530e+002 8.610356e+001
      vertex   -7.776371e+000 -2.369790e+002 8.510279e+001
    endloop
  endfacet
  facet normal -5.567386e-002 1.644813e-001 -9.848078e-001
    outer loop
      vertex   -7.776371e+000 -2.369790e+002 8.510279e+001
      vertex   -1.151626e+001 -2.322530e+002 8.610356e+001
      vertex   -1.125707e+001 -2.322027e+002 8.609730e+001
    endloop
  endfacet
  facet normal -5.567386e-002 1.644813e-001 -9.848078e-001
    outer loop
      vertex   -1.100735e+001 -2.321521e+002 8.609163e+001
      vertex   -7.776371e+000 -2.369790e+002 8.510279e+001
      vertex   -1.125707e+001 -2.322027e+002 8.609730e+001
    endloop
  endfacet
  facet normal -5.567386e-002 1.644813e-001 -9.848078e-001
    outer loop
      vertex   -1.100735e+001 -2.321521e+002 8.609163e+001
      vertex   -1.076666e+001 -2.321011e+002 8.608654e+001
      vertex   -7.776371e+000 -2.369790e+002 8.510279e+001
    endloop
  endfacet
  facet normal -5.567386e-002 1.644813e-001 -9.848078e-001
    outer loop
      vertex   -7.776371e+000 -2.369790e+002 8.510279e+001
      vertex   -1.076666e+001 -2.321011e+002 8.608654e+001
      vertex   -1.053452e+001 -2.320496e+002 8.608203e+001
    endloop
  endfacet
  facet normal -5.567386e-002 1.644813e-001 -9.848078e-001
    outer loop
      vertex   -1.031047e+001 -2.319974e+002 8.607808e+001
      vertex   -7.776371e+000 -2.369790e+002 8.510279e+001
      vertex   -1.053452e+001 -2.320496e+002 8.608203e+001
    endloop
  endfacet
  facet normal -5.567386e-002 1.644813e-001 -9.848078e-001
    outer loop
      vertex   -1.031047e+001 -2.319974e+002 8.607808e+001
      vertex   -1.009404e+001 -2.319445e+002 8.607468e+001
      vertex   -7.776371e+000 -2.369790e+002 8.510279e+001
    endloop
  endfacet
  facet normal -5.567386e-002 1.644813e-001 -9.848078e-001
    outer loop
      vertex   -7.776371e+000 -2.369790e+002 8.510279e+001
      vertex   -1.009404e+001 -2.319445e+002 8.607468e+001
      vertex   -9.884746e+000 -2.318909e+002 8.607180e+001
    endloop
  endfacet
  facet normal -5.567386e-002 1.644813e-001 -9.848078e-001
    outer loop
      vertex   -7.480218e+000 -2.368790e+002 8.510275e+001
      vertex   -9.884746e+000 -2.318909e+002 8.607180e+001
      vertex   -9.682098e+000 -2.318365e+002 8.606942e+001
    endloop
  endfacet
  facet normal -5.567386e-002 1.644813e-001 -9.848078e-001
    outer loop
      vertex   -7.174832e+000 -2.367717e+002 8.510341e+001
      vertex   -9.682098e+000 -2.318365e+002 8.606942e+001
      vertex   -9.485608e+000 -2.317815e+002 8.606751e+001
    endloop
  endfacet
  facet normal -5.567386e-002 1.644813e-001 -9.848078e-001
    outer loop
      vertex   -6.860248e+000 -2.366569e+002 8.510479e+001
      vertex   -9.485608e+000 -2.317815e+002 8.606751e+001
      vertex   -9.109126e+000 -2.316689e+002 8.606502e+001
    endloop
  endfacet
  facet normal -5.567386e-002 1.644813e-001 -9.848078e-001
    outer loop
      vertex   -6.557696e+000 -2.365426e+002 8.510678e+001
      vertex   -9.109126e+000 -2.316689e+002 8.606502e+001
      vertex   -6.268498e+000 -2.364299e+002 8.510926e+001
    endloop
  endfacet
  facet normal -5.567386e-002 1.644813e-001 -9.848078e-001
    outer loop
      vertex   -6.557696e+000 -2.365426e+002 8.510678e+001
      vertex   -6.860248e+000 -2.366569e+002 8.510479e+001
      vertex   -9.109126e+000 -2.316689e+002 8.606502e+001
    endloop
  endfacet
  facet normal -5.567386e-002 1.644813e-001 -9.848078e-001
    outer loop
      vertex   -7.776371e+000 -2.369790e+002 8.510279e+001
      vertex   -9.884746e+000 -2.318909e+002 8.607180e+001
      vertex   -7.480218e+000 -2.368790e+002 8.510275e+001
    endloop
  endfacet
  facet normal -5.567386e-002 1.644813e-001 -9.848078e-001
    outer loop
      vertex   -7.480218e+000 -2.368790e+002 8.510275e+001
      vertex   -9.682098e+000 -2.318365e+002 8.606942e+001
      vertex   -7.174832e+000 -2.367717e+002 8.510341e+001
    endloop
  endfacet
  facet normal -5.567386e-002 1.644813e-001 -9.848078e-001
    outer loop
      vertex   -7.174832e+000 -2.367717e+002 8.510341e+001
      vertex   -9.485608e+000 -2.317815e+002 8.606751e+001
      vertex   -6.860248e+000 -2.366569e+002 8.510479e+001
    endloop
  endfacet
  facet normal -5.567386e-002 1.644813e-001 -9.848078e-001
    outer loop
      vertex   -9.109126e+000 -2.316689e+002 8.606502e+001
      vertex   -8.751318e+000 -2.315529e+002 8.606416e+001
      vertex   -6.268498e+000 -2.364299e+002 8.510926e+001
    endloop
  endfacet
  facet normal -5.567386e-002 1.644813e-001 -9.848078e-001
    outer loop
      vertex   -6.268498e+000 -2.364299e+002 8.510926e+001
      vertex   -8.751318e+000 -2.315529e+002 8.606416e+001
      vertex   -5.977846e+000 -2.363133e+002 8.511230e+001
    endloop
  endfacet
  facet normal -5.567386e-002 1.644813e-001 -9.848078e-001
    outer loop
      vertex   -5.977846e+000 -2.363133e+002 8.511230e+001
      vertex   -8.751318e+000 -2.315529e+002 8.606416e+001
      vertex   -8.408190e+000 -2.314330e+002 8.606479e+001
    endloop
  endfacet
  facet normal -5.567386e-002 1.644813e-001 -9.848078e-001
    outer loop
      vertex   -5.827389e+000 -2.362518e+002 8.511408e+001
      vertex   -8.408190e+000 -2.314330e+002 8.606479e+001
      vertex   -5.671085e+000 -2.361869e+002 8.511607e+001
    endloop
  endfacet
  facet normal -5.567386e-002 1.644813e-001 -9.848078e-001
    outer loop
      vertex   -5.827389e+000 -2.362518e+002 8.511408e+001
      vertex   -5.977846e+000 -2.363133e+002 8.511230e+001
      vertex   -8.408190e+000 -2.314330e+002 8.606479e+001
    endloop
  endfacet
  facet normal -5.567386e-002 1.644813e-001 -9.848078e-001
    outer loop
      vertex   -5.671085e+000 -2.361869e+002 8.511607e+001
      vertex   -8.408190e+000 -2.314330e+002 8.606479e+001
      vertex   -5.507129e+000 -2.361180e+002 8.511832e+001
    endloop
  endfacet
  facet normal -5.567386e-002 1.644813e-001 -9.848078e-001
    outer loop
      vertex   -5.507129e+000 -2.361180e+002 8.511832e+001
      vertex   -8.408190e+000 -2.314330e+002 8.606479e+001
      vertex   -8.075775e+000 -2.313084e+002 8.606682e+001
    endloop
  endfacet
  facet normal -5.567386e-002 1.644813e-001 -9.848078e-001
    outer loop
      vertex   -5.333733e+000 -2.360440e+002 8.512086e+001
      vertex   -8.075775e+000 -2.313084e+002 8.606682e+001
      vertex   -5.149124e+000 -2.359642e+002 8.512375e+001
    endloop
  endfacet
  facet normal -5.567386e-002 1.644813e-001 -9.848078e-001
    outer loop
      vertex   -5.333733e+000 -2.360440e+002 8.512086e+001
      vertex   -5.507129e+000 -2.361180e+002 8.511832e+001
      vertex   -8.075775e+000 -2.313084e+002 8.606682e+001
    endloop
  endfacet
  facet normal -5.567386e-002 1.644813e-001 -9.848078e-001
    outer loop
      vertex   -8.075775e+000 -2.313084e+002 8.606682e+001
      vertex   -7.750194e+000 -2.311779e+002 8.607020e+001
      vertex   -5.149124e+000 -2.359642e+002 8.512375e+001
    endloop
  endfacet
  facet normal -5.567386e-002 1.644813e-001 -9.848078e-001
    outer loop
      vertex   -5.149124e+000 -2.359642e+002 8.512375e+001
      vertex   -7.750194e+000 -2.311779e+002 8.607020e+001
      vertex   -4.951550e+000 -2.358776e+002 8.512705e+001
    endloop
  endfacet
  facet normal -5.567386e-002 1.644813e-001 -9.848078e-001
    outer loop
      vertex   -4.951550e+000 -2.358776e+002 8.512705e+001
      vertex   -7.750194e+000 -2.311779e+002 8.607020e+001
      vertex   -4.739276e+000 -2.357832e+002 8.513083e+001
    endloop
  endfacet
  facet normal -5.567386e-002 1.644813e-001 -9.848078e-001
    outer loop
      vertex   -4.739276e+000 -2.357832e+002 8.513083e+001
      vertex   -7.750194e+000 -2.311779e+002 8.607020e+001
      vertex   -7.427707e+000 -2.310404e+002 8.607495e+001
    endloop
  endfacet
  facet normal -5.567386e-002 1.644813e-001 -9.848078e-001
    outer loop
      vertex   -4.510588e+000 -2.356799e+002 8.513514e+001
      vertex   -7.427707e+000 -2.310404e+002 8.607495e+001
      vertex   -4.263790e+000 -2.355668e+002 8.514008e+001
    endloop
  endfacet
  facet normal -5.567386e-002 1.644813e-001 -9.848078e-001
    outer loop
      vertex   -4.510588e+000 -2.356799e+002 8.513514e+001
      vertex   -4.739276e+000 -2.357832e+002 8.513083e+001
      vertex   -7.427707e+000 -2.310404e+002 8.607495e+001
    endloop
  endfacet
  facet normal -5.567386e-002 1.644813e-001 -9.848078e-001
    outer loop
      vertex   -7.427707e+000 -2.310404e+002 8.607495e+001
      vertex   -7.104755e+000 -2.308941e+002 8.608112e+001
      vertex   -4.263790e+000 -2.355668e+002 8.514008e+001
    endloop
  endfacet
  facet normal -5.567386e-002 1.644813e-001 -9.848078e-001
    outer loop
      vertex   -4.263790e+000 -2.355668e+002 8.514008e+001
      vertex   -7.104755e+000 -2.308941e+002 8.608112e+001
      vertex   -4.133074e+000 -2.355063e+002 8.514280e+001
    endloop
  endfacet
  facet normal -5.567386e-002 1.644813e-001 -9.848078e-001
    outer loop
      vertex   -4.133074e+000 -2.355063e+002 8.514280e+001
      vertex   -7.104755e+000 -2.308941e+002 8.608112e+001
      vertex   -3.997201e+000 -2.354428e+002 8.514572e+001
    endloop
  endfacet
  facet normal -5.567386e-002 1.644813e-001 -9.848078e-001
    outer loop
      vertex   -3.997201e+000 -2.354428e+002 8.514572e+001
      vertex   -7.104755e+000 -2.308941e+002 8.608112e+001
      vertex   -6.777990e+000 -2.307373e+002 8.608883e+001
    endloop
  endfacet
  facet normal -5.567386e-002 1.644813e-001 -9.848078e-001
    outer loop
      vertex   -6.444269e+000 -2.305680e+002 8.609824e+001
      vertex   -3.997201e+000 -2.354428e+002 8.514572e+001
      vertex   -6.777990e+000 -2.307373e+002 8.608883e+001
    endloop
  endfacet
endsolid
